<svg width="140" height="140" viewBox="0 0 140 140" fill="none" xmlns="http://www.w3.org/2000/svg">
<g filter="url(#filter0_d_210_106)">
<path d="M70 10.5001C91.8152 10.5001 109.5 28.1849 109.5 50.0001C109.5 71.8154 91.8152 89.5001 70 89.5001C48.1848 89.5001 30.5 71.8154 30.5 50.0001C30.5 28.1849 48.1847 10.5001 70 10.5001Z" stroke="url(#paint0_linear_210_106)" shape-rendering="crispEdges"/>
</g>
<path fill-rule="evenodd" clip-rule="evenodd" d="M70 65C78.2843 65 85 58.2843 85 50C85 41.7157 78.2843 35 70 35C61.7157 35 55 41.7157 55 50C55 58.2843 61.7157 65 70 65ZM69.0518 56.1573V57.7581H70.0773V56.1573H70.1274C71.1362 56.1573 71.9554 56.0072 72.5849 55.7071C73.2143 55.4069 73.675 55.0005 73.9668 54.4877C74.2586 53.975 74.4045 53.3976 74.4045 52.7556C74.4045 52.0803 74.2711 51.5091 74.0043 51.0422C73.7375 50.5753 73.4061 50.2168 73.0101 49.9667C72.614 49.7166 72.2201 49.579 71.8282 49.554V49.4289C72.1951 49.3289 72.5348 49.1746 72.8475 48.9662C73.1643 48.7577 73.4186 48.4743 73.6104 48.1157C73.8063 47.7572 73.9043 47.3028 73.9043 46.7525C73.9043 46.1272 73.7625 45.5582 73.4791 45.0454C73.1956 44.5285 72.7641 44.1179 72.1846 43.8135C71.627 43.5167 70.9246 43.3626 70.0773 43.3515V41.75H69.0518V43.3508H65.5V56.1573H69.0518ZM70.0773 54.7816H70.1274C71.1404 54.7816 71.8595 54.5857 72.2847 54.1938C72.7141 53.7978 72.9288 53.3184 72.9288 52.7556C72.9288 52.322 72.8183 51.9218 72.5974 51.555C72.3764 51.184 72.0617 50.888 71.6531 50.667C71.2446 50.4419 70.761 50.3294 70.2024 50.3294H70.0773V54.7816ZM69.0518 50.3294V54.7816H67.0508V50.3294H69.0518ZM70.0773 48.9754C70.4848 48.9577 70.8558 48.8671 71.1904 48.7035C71.5698 48.5201 71.8699 48.2616 72.0909 47.9281C72.316 47.5946 72.4285 47.2028 72.4285 46.7525C72.4285 46.1898 72.2326 45.7124 71.8407 45.3206C71.4644 44.9402 70.8766 44.7425 70.0773 44.7274V48.9754ZM69.0518 44.7265V48.9787H67.0508V44.7265H69.0518Z" fill="#FABE12"/>
<defs>
<filter id="filter0_d_210_106" x="0" y="0.00012207" width="140" height="140" filterUnits="userSpaceOnUse" color-interpolation-filters="sRGB">
<feFlood flood-opacity="0" result="BackgroundImageFix"/>
<feColorMatrix in="SourceAlpha" type="matrix" values="0 0 0 0 0 0 0 0 0 0 0 0 0 0 0 0 0 0 127 0" result="hardAlpha"/>
<feOffset dy="20"/>
<feGaussianBlur stdDeviation="15"/>
<feComposite in2="hardAlpha" operator="out"/>
<feColorMatrix type="matrix" values="0 0 0 0 0.968627 0 0 0 0 0.788235 0 0 0 0 0.282353 0 0 0 0.15 0"/>
<feBlend mode="normal" in2="BackgroundImageFix" result="effect1_dropShadow_210_106"/>
<feBlend mode="normal" in="SourceGraphic" in2="effect1_dropShadow_210_106" result="shape"/>
</filter>
<linearGradient id="paint0_linear_210_106" x1="40" y1="23.5" x2="94" y2="51.143" gradientUnits="userSpaceOnUse">
<stop stop-color="#F1EFEF" stop-opacity="0"/>
<stop offset="1" stop-color="#F7C948"/>
</linearGradient>
</defs>
</svg>
