<svg width="140" height="140" viewBox="0 0 140 140" fill="none" xmlns="http://www.w3.org/2000/svg">
<g filter="url(#filter0_d_210_142)">
<path d="M70 10.5C91.8152 10.5 109.5 28.1847 109.5 50C109.5 71.8152 91.8153 89.5 70 89.5C48.1848 89.5 30.5 71.8152 30.5 50C30.5 28.1847 48.1847 10.5 70 10.5Z" stroke="url(#paint0_linear_210_142)" shape-rendering="crispEdges"/>
</g>
<path d="M79.8679 42.7743C75.3757 40.5139 69.76 41.2609 66.0104 45.0152C62.3536 48.6766 61.5536 54.1152 63.6103 58.5543C63.3248 58.4158 63.042 58.2606 62.7629 58.088C62.4858 57.9165 62.3473 57.8308 62.2425 57.7892C62.0422 57.7098 61.8903 57.6868 61.6755 57.7035C61.5632 57.7121 61.4359 57.7452 61.1814 57.8112C59.5796 58.2269 58.7786 58.4348 58.2016 58.3172C57.2001 58.1132 56.4175 57.3295 56.2136 56.3268C56.0962 55.749 56.3038 54.9471 56.719 53.3433C56.785 53.0883 56.818 52.9608 56.8266 52.848C56.8431 52.6329 56.8197 52.4791 56.74 52.2787C56.6982 52.1735 56.6127 52.0358 56.4417 51.7603C53.354 46.7856 55.7436 40.7548 58.7598 37.7348C63.7332 32.7551 71.7968 32.7551 76.7702 37.7348C78.233 39.1994 79.2656 40.9318 79.8679 42.7743Z" fill="#FABE12"/>
<path fill-rule="evenodd" clip-rule="evenodd" d="M78.607 62.8372C74.5064 65.3745 69.4541 63.3121 67.0716 60.9266C62.9758 56.8256 62.9758 50.1767 67.0716 46.0758C71.1674 41.9749 77.8079 41.9749 81.9037 46.0758C84.3876 48.5629 86.3555 53.5294 83.8127 57.6262C83.6719 57.8531 83.6015 57.9665 83.5671 58.0531C83.5014 58.2182 83.4821 58.3449 83.4957 58.522C83.5028 58.6149 83.53 58.7199 83.5844 58.9298C83.9263 60.2506 84.0972 60.9111 84.0005 61.3869C83.8327 62.2126 83.1881 62.858 82.3634 63.0261C81.8882 63.1229 81.2286 62.9517 79.9095 62.6094C79.6999 62.555 79.595 62.5278 79.5025 62.5206C79.3256 62.5069 79.2005 62.5258 79.0356 62.5912C78.9493 62.6254 78.8352 62.696 78.607 62.8372ZM71.4998 53.5002C71.4998 54.3287 70.8283 55.0002 69.9998 55.0002C69.1714 55.0002 68.4998 54.3287 68.4998 53.5002C68.4998 52.6718 69.1714 52.0002 69.9998 52.0002C70.8283 52.0002 71.4998 52.6718 71.4998 53.5002ZM75.9999 53.5002C75.9999 54.3287 75.3283 55.0002 74.4999 55.0002C73.6714 55.0002 72.9999 54.3287 72.9999 53.5002C72.9999 52.6718 73.6714 52.0002 74.4999 52.0002C75.3283 52.0002 75.9999 52.6718 75.9999 53.5002ZM78.9999 55.0002C79.8284 55.0002 80.4999 54.3287 80.4999 53.5002C80.4999 52.6718 79.8284 52.0002 78.9999 52.0002C78.1715 52.0002 77.4999 52.6718 77.4999 53.5002C77.4999 54.3287 78.1715 55.0002 78.9999 55.0002Z" fill="#FABE12"/>
<defs>
<filter id="filter0_d_210_142" x="0" y="0" width="140" height="140" filterUnits="userSpaceOnUse" color-interpolation-filters="sRGB">
<feFlood flood-opacity="0" result="BackgroundImageFix"/>
<feColorMatrix in="SourceAlpha" type="matrix" values="0 0 0 0 0 0 0 0 0 0 0 0 0 0 0 0 0 0 127 0" result="hardAlpha"/>
<feOffset dy="20"/>
<feGaussianBlur stdDeviation="15"/>
<feComposite in2="hardAlpha" operator="out"/>
<feColorMatrix type="matrix" values="0 0 0 0 0.968627 0 0 0 0 0.788235 0 0 0 0 0.282353 0 0 0 0.15 0"/>
<feBlend mode="normal" in2="BackgroundImageFix" result="effect1_dropShadow_210_142"/>
<feBlend mode="normal" in="SourceGraphic" in2="effect1_dropShadow_210_142" result="shape"/>
</filter>
<linearGradient id="paint0_linear_210_142" x1="40.5" y1="72.5" x2="94" y2="51.1429" gradientUnits="userSpaceOnUse">
<stop stop-color="#F1EFEF" stop-opacity="0"/>
<stop offset="1" stop-color="#F7C948"/>
</linearGradient>
</defs>
</svg>
