<svg width="67" height="90" viewBox="0 0 67 90" fill="none" xmlns="http://www.w3.org/2000/svg">
<path d="M0 64.752V69.2303C0 72.1359 1.83931 75.0148 5.59791 77.2806C13.2484 81.8389 25.8037 81.9722 33.6675 77.5738C37.666 75.3347 39.6652 72.3491 39.6919 69.3636V64.8852L0 64.752Z" fill="#FBCC34"/>
<path d="M34.0943 56.8083L33.5878 56.5151C37.533 58.8609 39.319 61.9531 38.9724 64.9919C38.6792 67.631 36.7599 70.2167 33.2146 72.2159C31.6418 73.0956 29.8558 73.7887 27.9632 74.2951C20.7925 76.2144 11.9692 75.4147 6.13135 71.9227C-1.25257 67.5243 -1.06597 60.487 6.50454 56.2485L6.02472 56.5418C-1.83902 60.9668 -2.02562 68.2441 5.62487 72.8024C11.6759 76.4277 20.8192 77.254 28.2564 75.2548C30.2024 74.7217 32.0417 74.0019 33.6944 73.0956C37.373 71.043 39.3456 68.3507 39.6655 65.6051C40.0121 62.4596 38.1727 59.2607 34.0943 56.835V56.8083Z" fill="url(#paint0_linear_262_390)"/>
<path d="M33.6132 54.3561C33.6132 54.3561 33.4532 54.2494 33.3733 54.2228L29.8012 52.1702C29.8012 52.1702 29.9079 52.2502 29.9878 52.2769L10.1019 52.0636L6.52992 54.0895C-1.06725 58.3546 -1.22719 65.3653 6.15672 69.7637C11.9945 73.2557 20.7913 74.0554 27.9886 72.1361C29.8812 71.6296 31.6672 70.9366 33.24 70.0302C36.7853 68.031 38.7046 65.4453 38.9978 62.7796C39.3177 59.7674 37.5317 56.6752 33.6132 54.3294V54.3561Z" fill="url(#paint1_linear_262_390)"/>
<path d="M33.2136 70.0305C25.6164 74.2956 13.5143 74.1623 6.13036 69.7639C2.50504 67.6047 0.692383 64.8058 0.71904 62.0068V64.1927C0.71904 66.9916 2.50504 69.7906 6.13036 71.9498C13.5143 76.3482 25.6164 76.4814 33.2136 72.2164C37.0788 70.0572 38.9981 67.1782 39.0248 64.2993V62.1135C39.0248 64.9924 37.0788 67.8713 33.2403 70.0305H33.2136Z" fill="#FBCC34"/>
<path d="M29.6966 61.4465C24.1254 64.5653 15.222 64.4853 9.81072 61.2332C7.14505 59.6338 5.83887 57.5813 5.83887 55.5287V57.8478C5.83887 59.9004 7.14505 61.953 9.81072 63.5524C15.222 66.7778 24.1254 66.8845 29.6966 63.7656C32.5223 62.1662 33.9617 60.0603 33.9617 57.9544V55.6353C33.9617 57.7412 32.5489 59.8737 29.6966 61.4465Z" fill="#FFD04F"/>
<path d="M29.9099 49.8772C28.4704 46.7584 28.0972 41.9868 27.964 38.7081C27.9373 37.8284 27.9106 36.9221 27.9106 35.9358C27.9106 37.1353 27.1109 38.3349 25.5115 39.2145C22.366 40.9739 17.3279 40.9206 14.2624 39.1079C12.7696 38.2016 11.9966 37.0553 12.0232 35.8824C12.0232 36.6022 11.9966 37.2686 11.9699 37.935C11.8366 41.9069 11.5168 45.9853 10.024 49.6373C9.99732 49.6906 9.97066 49.7439 9.91735 49.7973C7.22502 51.37 5.86552 53.4492 5.83887 55.5018C5.83887 57.5544 7.14505 59.6069 9.81072 61.2063C15.222 64.4318 24.1254 64.5384 29.6966 61.4196C32.5223 59.8202 33.9617 57.7143 33.9617 55.6084C33.9617 53.1294 32.0958 51.1568 29.9099 49.8772Z" fill="url(#paint2_linear_262_390)"/>
<path d="M7.06543 32.4711V33.3507C7.06543 35.2434 8.26498 37.1093 10.7174 38.5755C15.6756 41.5344 23.8592 41.6143 28.9506 38.7621C31.5363 37.2959 32.8425 35.3767 32.8692 33.4307V32.551L7.06543 32.4711Z" fill="url(#paint3_linear_262_390)"/>
<path d="M29.2167 27.2994C27.9638 26.553 26.5244 25.9932 24.9783 25.62L22.6858 25.0602C23.5388 25.2735 24.3119 25.5667 24.9783 25.9666L15.1153 25.8599C15.755 25.4867 16.5014 25.2202 17.3011 25.0336L15.0087 25.5667C13.5425 25.9132 12.183 26.4197 10.9835 27.1128C5.86539 29.9917 5.75876 34.71 10.7169 37.6689C14.3689 39.8547 19.7535 40.4678 24.3918 39.5082C26.0445 39.1616 27.6173 38.6018 28.9501 37.8555C31.6158 36.3627 32.922 34.3634 32.8687 32.3642C32.8153 30.5515 31.5891 28.7122 29.2167 27.2994Z" fill="url(#paint4_linear_262_390)"/>
<path d="M30.0139 49.9573C31.0802 51.0236 31.8265 52.3031 31.8265 53.8492C31.8265 55.7685 30.6003 57.7144 28.2012 59.1539C23.483 62.0062 15.9125 61.9262 11.3009 58.9673C9.03503 57.5278 7.91545 55.6352 7.91545 53.7692C7.91545 52.4364 8.52856 51.1036 9.70145 49.9307C7.14241 51.4768 5.80957 53.5027 5.80957 55.5286C5.80957 57.5811 7.11575 59.6337 9.78142 61.2331C15.1927 64.4586 24.0961 64.5652 29.6673 61.4464C32.493 59.847 33.9324 57.7411 33.9324 55.6352C33.9324 53.1828 32.1198 51.2635 29.9872 49.984L30.0139 49.9573Z" fill="url(#paint5_linear_262_390)"/>
<path d="M24.8158 28.0196C22.0701 29.5657 17.6451 29.5124 14.9794 27.913C13.6733 27.1133 13.0068 26.1004 13.0068 25.0874V28.8993C13.0068 29.9123 13.6466 30.9252 14.9528 31.7249C17.6451 33.3243 22.0435 33.3776 24.7891 31.8316C26.2019 31.0585 26.895 29.9922 26.895 28.9526V25.1407C26.895 26.1803 26.2019 27.2466 24.7891 28.0196H24.8158Z" fill="url(#paint6_linear_262_390)"/>
<path d="M11.5938 23.621V25.0871C11.5938 26.3133 12.3668 27.5396 13.9662 28.4725C17.1917 30.3918 22.4697 30.4451 25.7751 28.5792C27.4545 27.6462 28.3075 26.3667 28.3075 25.1138V23.6477L11.5938 23.5944V23.621Z" fill="url(#paint7_linear_262_390)"/>
<path d="M25.9638 20.2882C22.7384 18.369 17.4603 18.3156 14.1549 20.1816C10.8494 22.0476 10.7695 25.1131 13.9949 27.0324C17.2204 28.9517 22.4984 29.005 25.8039 27.139C29.1093 25.273 29.1893 22.2075 25.9638 20.2882Z" fill="url(#paint8_linear_262_390)"/>
<path d="M9.06445 13.2246L12.903 24.4471C13.1696 25.2201 13.8094 25.9399 14.7957 26.553C17.568 28.2057 22.1529 28.259 25.0052 26.6596C26.0981 26.0465 26.7645 25.3001 27.0577 24.5004L30.9496 13.3046L9.06445 13.2513V13.2246Z" fill="url(#paint9_linear_262_390)"/>
<path d="M8.85059 10.6384V11.9446C8.85059 13.5707 9.8902 15.1967 11.9961 16.4763C16.2878 19.0353 23.3518 19.1153 27.7769 16.6362C30.016 15.3833 31.1623 13.704 31.1623 12.0246V10.7184L8.85059 10.6651V10.6384Z" fill="url(#paint10_linear_262_390)"/>
<path d="M27.9892 6.18665C23.6974 3.6276 16.6334 3.54763 12.2084 6.02671C7.78335 8.50578 7.70338 12.5843 11.9951 15.17C16.2868 17.729 23.3509 17.809 27.7759 15.3299C32.2009 12.8508 32.2809 8.77235 27.9892 6.18665Z" fill="url(#paint11_linear_262_390)"/>
<path d="M27.056 8.82644L26.1763 6.40068C26.6028 7.60023 26.0164 8.87976 24.417 9.78609C21.9112 11.1989 17.9394 11.1456 15.5136 9.70612C13.9942 8.79979 13.4344 7.54692 13.8609 6.37402L12.9546 8.77313C12.4481 10.106 13.0878 11.5188 14.8205 12.585C17.5928 14.2378 22.1778 14.2911 25.0301 12.6917C26.8694 11.6521 27.5624 10.1859 27.056 8.82644Z" fill="url(#paint12_linear_262_390)"/>
<path d="M24.5221 4.61432C22.0963 3.17486 18.0978 3.12154 15.6188 4.53435C13.113 5.94716 13.0597 8.23964 15.4855 9.70576C17.9112 11.1719 21.9098 11.1985 24.3888 9.78573C26.8946 8.37292 26.9479 6.08044 24.5221 4.61432Z" fill="url(#paint13_linear_262_390)"/>
<path d="M19.806 3.54785C18.2865 3.57451 16.7937 3.89439 15.6208 4.53415C15.1144 4.82737 14.7678 5.14726 14.4746 5.49379C14.5279 6.77332 16.154 7.94621 18.3398 8.23944C20.6856 8.53266 22.7115 7.67965 22.8715 6.32015C23.0314 5.14726 21.6719 4.02767 19.806 3.54785Z" fill="#DAD6CB"/>
<path d="M24.017 4.02824C24.017 3.62839 23.9637 2.82869 23.4839 2.02899C21.6979 -1.06319 17.1929 -0.503403 16.1533 2.90866C15.2203 6.0275 18.4724 9.27962 21.8845 7.57359C23.0574 6.98714 23.9904 5.62765 24.017 4.0549V4.02824Z" fill="url(#paint14_linear_262_390)"/>
<path d="M30.959 78.1609V79.2538C30.959 81.8928 32.6384 84.5052 36.0504 86.5578C42.9812 90.6896 54.3903 90.8228 61.5076 86.8243C65.1329 84.7984 66.9456 82.0794 66.9722 79.3604V78.2675L30.959 78.1609Z" fill="url(#paint15_linear_262_390)"/>
<path d="M61.3477 69.7904C58.7886 68.2443 55.6964 67.3113 52.471 66.9381L37.1967 69.5238C33.5713 71.4698 31.0656 74.3753 30.959 78.1873C30.959 80.8263 32.6384 83.4386 36.0504 85.4912C42.9812 89.623 54.3903 89.7563 61.5076 85.7578C65.1329 83.7319 66.9456 81.0129 66.9722 78.1873C66.839 74.8285 64.9463 72.0029 61.3477 69.817V69.7904Z" fill="url(#paint16_linear_262_390)"/>
<path d="M60.9738 69.6843C54.5228 65.8457 43.9401 65.7391 37.3026 69.4444C30.6651 73.1497 30.5318 79.3074 36.9561 83.1459C39.9683 84.9586 43.8868 85.9182 47.8853 86.0782C52.4436 86.2648 57.0819 85.3584 60.6006 83.3858C61.1604 83.066 61.6935 82.7194 62.1733 82.3729C67.2114 78.6143 66.8382 73.203 60.9471 69.6843H60.9738ZM61.4269 81.5732C60.9738 81.8931 60.4939 82.2129 59.9608 82.5328C56.6287 84.3988 52.257 85.2518 47.9919 85.0652C44.2333 84.9319 40.5281 83.9989 37.7024 82.2929C31.6514 78.6676 31.7846 72.8831 38.0223 69.3911C44.26 65.899 54.2296 65.979 60.3073 69.6043C65.8519 72.9097 66.1985 78.0278 61.4802 81.5465L61.4269 81.5732Z" fill="url(#paint17_linear_262_390)"/>
<path d="M61.6949 65.4729L34.5584 66.7258C29.227 71.3107 29.7602 77.9216 36.6109 82.08C41.2492 84.9057 51.5654 87.2781 61.0019 82.3466C61.1618 82.24 61.3217 82.1067 61.4017 81.8934C61.2951 82.1067 61.1618 82.24 61.0019 82.3466C62.468 81.4669 66.9196 78.8279 66.9996 73.6832C67.0263 71.4174 66.0666 68.2719 61.6949 65.4729Z" fill="url(#paint18_linear_262_390)"/>
<path d="M61.2674 65.1799C60.7076 64.86 60.1212 64.5401 59.5348 64.2736L55.5629 62.4609C55.9361 62.6208 56.3093 62.8341 56.6558 63.0207L41.5681 62.8608C41.8613 62.7008 42.1546 62.5409 42.4744 62.4076L38.5026 64.1936C37.9961 64.4068 37.5163 64.6468 37.0631 64.9133C30.2657 68.7252 30.1324 75.0162 36.7166 78.9614C39.4889 80.6141 43.0342 81.6004 46.6862 81.8937C51.7243 82.2935 57.029 81.4138 60.9476 79.2013C61.7739 78.7215 62.5203 78.215 63.1601 77.6819C67.6651 73.87 67.0786 68.6186 61.2941 65.1532L61.2674 65.1799Z" fill="url(#paint19_linear_262_390)"/>
<path d="M38.3418 66.6456V67.2854C38.3418 68.8315 39.3281 70.4042 41.354 71.6038C45.4591 74.0562 52.2033 74.1362 56.4417 71.7637C58.6009 70.5642 59.6672 68.9648 59.6672 67.3387V66.6989L38.3418 66.6456Z" fill="url(#paint20_linear_262_390)"/>
<path d="M56.1485 61.2338L42.1271 61.0472C40.421 62.0069 38.4218 63.7129 38.3418 66.6452C38.3418 68.1912 39.3281 69.764 41.354 70.9635C45.4591 73.416 52.2033 73.4959 56.4417 71.1235C58.6009 69.9239 59.6672 68.3245 59.6672 66.6718C59.6139 64.4326 58.441 62.5933 56.1485 61.2338Z" fill="url(#paint21_linear_262_390)"/>
<path d="M56.0703 61.181L55.2706 60.8078C58.2295 62.5671 58.5227 65.2595 56.2302 67.2054C55.9104 67.472 55.5372 67.7385 55.1107 67.9785C53.1114 69.098 50.4191 69.5512 47.8334 69.3646C45.9674 69.2047 44.1547 68.7249 42.7419 67.8718C39.3832 65.8726 39.4632 62.6471 42.9285 60.7012L42.1288 61.0477C38.2103 63.2336 38.1303 66.8589 41.9422 69.1247C43.5416 70.0843 45.5675 70.6441 47.7001 70.8041C50.6057 71.044 53.6445 70.5108 55.9104 69.258C56.3902 68.9914 56.8167 68.6982 57.1899 68.3783C59.8022 66.1925 59.4557 63.1536 56.1236 61.1543L56.0703 61.181Z" fill="url(#paint22_linear_262_390)"/>
<path d="M57.5635 63.3399L55.1911 56.5957H42.8757L40.4499 63.3132C39.8901 64.9126 40.6365 66.6186 42.7424 67.8715C46.1011 69.8708 51.6457 69.9507 55.1111 68.0048C57.3236 66.7519 58.15 64.9926 57.5902 63.3665L57.5635 63.3399Z" fill="url(#paint23_linear_262_390)"/>
<path d="M59.1094 51.746C58.0164 49.6135 55.644 48.254 52.8983 47.6143C54.0979 47.9075 55.1908 48.334 56.1505 48.9204C59.989 51.2129 59.8824 54.8649 55.9639 57.0774C52.0187 59.2899 45.7277 59.2366 41.8891 56.9441C38.1838 54.7316 38.1838 51.2662 41.7292 49.0271C40.1831 49.9334 39.0102 51.1063 38.557 52.679C36.6377 59.2899 47.9668 63.5283 56.1505 59.2366C57.0301 58.7301 59.6692 57.1574 59.6958 54.0918C59.6958 53.5587 59.6158 52.7057 59.1094 51.7727V51.746Z" fill="url(#paint24_linear_262_390)"/>
<path d="M56.1767 48.8928C52.3381 46.6004 46.0471 46.5471 42.1019 48.7596C38.1567 50.9721 38.0768 54.624 41.9153 56.9165C43.5681 57.9028 45.7272 58.4893 47.9131 58.6492C50.7654 58.8358 53.7509 58.3293 55.9901 57.0765C56.4433 56.8099 56.8431 56.5433 57.2163 56.2501C59.9086 54.0376 59.5888 50.9454 56.2033 48.9195L56.1767 48.8928Z" fill="url(#paint25_linear_262_390)"/>
<path d="M56.177 48.8928C52.3385 46.6004 46.0475 46.5471 42.1023 48.7596C40.5295 49.6392 39.5965 50.7588 39.25 51.9051C39.3833 51.985 39.4899 52.0917 39.6232 52.1716C41.2759 53.1579 43.4351 53.7444 45.621 53.9043C48.4732 54.0909 51.4588 53.5844 53.6979 52.3316C54.1511 52.065 54.551 51.7984 54.9242 51.5052C55.7772 50.7855 56.3103 49.9858 56.5502 49.1594C56.4169 49.0794 56.3103 48.9728 56.177 48.8928Z" fill="#DBD7CC"/>
<path d="M58.7904 43.8009C58.7904 42.8412 58.6305 40.9219 57.4842 38.9227C53.1658 31.4321 42.2366 32.765 39.7308 41.0552C37.465 48.5991 45.3554 56.5161 53.619 52.3577C56.4713 50.9182 58.7371 47.6661 58.7638 43.8275L58.7904 43.8009Z" fill="url(#paint26_radial_262_390)"/>
<path d="M55.7505 40.3092C54.9774 41.6153 53.0581 41.9352 51.4321 41.0022C49.806 40.0692 49.1129 38.2299 49.8593 36.9238C50.6324 35.6176 52.5517 35.2977 54.1777 36.2307C55.8038 37.1637 56.4968 39.003 55.7505 40.3092Z" fill="white"/>
<defs>
<linearGradient id="paint0_linear_262_390" x1="0.000296757" y1="66.2715" x2="39.7188" y2="66.2715" gradientUnits="userSpaceOnUse">
<stop stop-color="#EEE8DE"/>
<stop offset="0.47" stop-color="#F4F1E8"/>
<stop offset="1" stop-color="#F8F6EE"/>
</linearGradient>
<linearGradient id="paint1_linear_262_390" x1="22.2778" y1="60.3221" x2="14.0225" y2="75.908" gradientUnits="userSpaceOnUse">
<stop stop-color="#FFF2D1"/>
<stop offset="0.28" stop-color="#FFF2D1"/>
<stop offset="0.76" stop-color="#FFF2D1"/>
<stop offset="1" stop-color="#FFF2D1"/>
</linearGradient>
<linearGradient id="paint2_linear_262_390" x1="5.78489" y1="49.822" x2="34.0157" y2="49.822" gradientUnits="userSpaceOnUse">
<stop stop-color="#FBCC34"/>
<stop offset="1" stop-color="#FFE89D"/>
</linearGradient>
<linearGradient id="paint3_linear_262_390" x1="7.06543" y1="36.6562" x2="32.8692" y2="36.6562" gradientUnits="userSpaceOnUse">
<stop stop-color="#D7D3C8"/>
<stop offset="1" stop-color="#F2ECE2"/>
</linearGradient>
<linearGradient id="paint4_linear_262_390" x1="21.5858" y1="30.8736" x2="15.5905" y2="41.6529" gradientUnits="userSpaceOnUse">
<stop stop-color="#FFF2D1"/>
<stop offset="0.28" stop-color="#FFF2D1"/>
<stop offset="0.76" stop-color="#FFF2D1"/>
<stop offset="1" stop-color="#FFF2D1"/>
</linearGradient>
<linearGradient id="paint5_linear_262_390" x1="6.10279" y1="56.8348" x2="32.9461" y2="56.8348" gradientUnits="userSpaceOnUse">
<stop stop-color="#EEE8DE"/>
<stop offset="0.47" stop-color="#F4F1E8"/>
<stop offset="1" stop-color="#F8F6EE"/>
</linearGradient>
<linearGradient id="paint6_linear_262_390" x1="12.9802" y1="29.0326" x2="26.9217" y2="29.0326" gradientUnits="userSpaceOnUse">
<stop stop-color="#FBCC34"/>
<stop offset="1" stop-color="#FFE89D"/>
</linearGradient>
<linearGradient id="paint7_linear_262_390" x1="11.5938" y1="26.7932" x2="28.3342" y2="26.7932" gradientUnits="userSpaceOnUse">
<stop stop-color="#D7D3C8"/>
<stop offset="1" stop-color="#F2ECE2"/>
</linearGradient>
<linearGradient id="paint8_linear_262_390" x1="11.5958" y1="23.647" x2="28.3363" y2="23.647" gradientUnits="userSpaceOnUse">
<stop stop-color="#EEE8DE"/>
<stop offset="0.47" stop-color="#F4F1E8"/>
<stop offset="1" stop-color="#F8F6EE"/>
</linearGradient>
<linearGradient id="paint9_linear_262_390" x1="9.02245" y1="20.5434" x2="30.9916" y2="20.5434" gradientUnits="userSpaceOnUse">
<stop stop-color="#FBCC34"/>
<stop offset="1" stop-color="#FFE89D"/>
</linearGradient>
<linearGradient id="paint10_linear_262_390" x1="8.85059" y1="14.5303" x2="31.1623" y2="14.5303" gradientUnits="userSpaceOnUse">
<stop stop-color="#D7D3C8"/>
<stop offset="1" stop-color="#F2ECE2"/>
</linearGradient>
<linearGradient id="paint11_linear_262_390" x1="21.3897" y1="9.27718" x2="16.1897" y2="18.6109" gradientUnits="userSpaceOnUse">
<stop stop-color="#FFF2D1"/>
<stop offset="0.28" stop-color="#FFF2D1"/>
<stop offset="0.76" stop-color="#FFF2D1"/>
<stop offset="1" stop-color="#FFF2D1"/>
</linearGradient>
<linearGradient id="paint12_linear_262_390" x1="12.7584" y1="10.1255" x2="27.2446" y2="10.1255" gradientUnits="userSpaceOnUse">
<stop stop-color="#FBCC34"/>
<stop offset="1" stop-color="#FFE89D"/>
</linearGradient>
<linearGradient id="paint13_linear_262_390" x1="20.793" y1="6.37118" x2="17.8421" y2="11.6506" gradientUnits="userSpaceOnUse">
<stop stop-color="#FFF2D1"/>
<stop offset="0.28" stop-color="#FFF2D1"/>
<stop offset="0.76" stop-color="#FFF2D1"/>
<stop offset="1" stop-color="#FFF2D1"/>
</linearGradient>
<linearGradient id="paint14_linear_262_390" x1="22.332" y1="-6.08544" x2="16.3642" y2="13.8324" gradientUnits="userSpaceOnUse">
<stop stop-color="#FFF5DA"/>
<stop offset="0.07" stop-color="#FFECB5"/>
<stop offset="0.22" stop-color="#FBE5A8"/>
<stop offset="0.38" stop-color="#FFE59C"/>
<stop offset="0.48" stop-color="#FFD459"/>
<stop offset="0.63" stop-color="#FFCE44"/>
<stop offset="0.8" stop-color="#FFC930"/>
<stop offset="1" stop-color="#FFBE05"/>
</linearGradient>
<linearGradient id="paint15_linear_262_390" x1="30.959" y1="83.9721" x2="66.9722" y2="83.9721" gradientUnits="userSpaceOnUse">
<stop stop-color="#D7D3C8"/>
<stop offset="1" stop-color="#F2ECE2"/>
</linearGradient>
<linearGradient id="paint16_linear_262_390" x1="30.959" y1="77.7874" x2="66.9722" y2="77.7874" gradientUnits="userSpaceOnUse">
<stop stop-color="#EEE8DE"/>
<stop offset="0.47" stop-color="#F4F1E8"/>
<stop offset="1" stop-color="#F8F6EE"/>
</linearGradient>
<linearGradient id="paint17_linear_262_390" x1="32.2378" y1="76.4018" x2="65.692" y2="76.4018" gradientUnits="userSpaceOnUse">
<stop stop-color="#CBC7BC"/>
<stop offset="1" stop-color="#EEE8DE"/>
</linearGradient>
<linearGradient id="paint18_linear_262_390" x1="30.9597" y1="75.3359" x2="66.9996" y2="75.3359" gradientUnits="userSpaceOnUse">
<stop stop-color="#D7D3C8"/>
<stop offset="1" stop-color="#F2ECE2"/>
</linearGradient>
<linearGradient id="paint19_linear_262_390" x1="31.8384" y1="72.2173" x2="66.119" y2="72.2173" gradientUnits="userSpaceOnUse">
<stop stop-color="#EEE8DE"/>
<stop offset="0.47" stop-color="#F4F1E8"/>
<stop offset="1" stop-color="#F8F6EE"/>
</linearGradient>
<linearGradient id="paint20_linear_262_390" x1="38.3151" y1="70.0577" x2="59.6672" y2="70.0577" gradientUnits="userSpaceOnUse">
<stop stop-color="#CBC7BC"/>
<stop offset="1" stop-color="#EEE8DE"/>
</linearGradient>
<linearGradient id="paint21_linear_262_390" x1="38.3418" y1="66.9384" x2="59.6672" y2="66.9384" gradientUnits="userSpaceOnUse">
<stop stop-color="#D7D3C8"/>
<stop offset="1" stop-color="#F2ECE2"/>
</linearGradient>
<linearGradient id="paint22_linear_262_390" x1="39.1166" y1="65.7926" x2="58.8693" y2="65.7926" gradientUnits="userSpaceOnUse">
<stop stop-color="#EEE8DE"/>
<stop offset="0.47" stop-color="#F4F1E8"/>
<stop offset="1" stop-color="#F8F6EE"/>
</linearGradient>
<linearGradient id="paint23_linear_262_390" x1="40.2633" y1="62.9667" x2="57.7501" y2="62.9667" gradientUnits="userSpaceOnUse">
<stop stop-color="#CBC7BC"/>
<stop offset="1" stop-color="#EEE8DE"/>
</linearGradient>
<linearGradient id="paint24_linear_262_390" x1="38.3438" y1="54.2784" x2="59.6958" y2="54.2784" gradientUnits="userSpaceOnUse">
<stop stop-color="#D7D3C8"/>
<stop offset="1" stop-color="#F2ECE2"/>
</linearGradient>
<linearGradient id="paint25_linear_262_390" x1="39.0897" y1="52.918" x2="58.9756" y2="52.918" gradientUnits="userSpaceOnUse">
<stop stop-color="#EEE8DE"/>
<stop offset="0.47" stop-color="#F4F1E8"/>
<stop offset="1" stop-color="#F8F6EE"/>
</linearGradient>
<radialGradient id="paint26_radial_262_390" cx="0" cy="0" r="1" gradientUnits="userSpaceOnUse" gradientTransform="translate(53.4591 36.4703) scale(18.713 18.713)">
<stop stop-color="#F8F6EE"/>
<stop offset="0.45" stop-color="#F5F3EA"/>
<stop offset="0.84" stop-color="#EEEAE0"/>
<stop offset="1" stop-color="#E9E4D9"/>
</radialGradient>
</defs>
</svg>
