<svg width="67" height="77" viewBox="0 0 67 77" fill="none" xmlns="http://www.w3.org/2000/svg">
<path d="M62.9656 26.8082L66.2842 24.8804L66.2746 35.7185L62.9656 36.8407V26.8082Z" fill="#FDDA86"/>
<path d="M26.9982 0.173282C27.4586 -0.0952741 28.082 -0.0569089 28.7822 0.345925L63.7904 20.5548C65.1715 21.3509 66.2937 23.2883 66.2841 24.8804L62.9655 26.8083C62.9655 25.2161 61.8529 23.2787 60.4718 22.4826L25.4636 2.27377C24.7634 1.87094 24.14 1.83258 23.6796 2.10113L26.9982 0.173282Z" fill="url(#paint0_linear_262_267)"/>
<g style="mix-blend-mode:screen" opacity="0.3">
<path d="M26.9982 0.173282C27.4586 -0.0952741 28.0821 -0.0569089 28.7822 0.345925L25.4636 2.27377C24.7635 1.87094 24.14 1.83258 23.6797 2.10113L26.9982 0.173282Z" fill="#FFAFF5"/>
</g>
<g style="mix-blend-mode:screen" opacity="0.3">
<path d="M63.7904 20.5548C65.1715 21.3509 66.2937 23.2883 66.2841 24.8805L62.9655 26.8083C62.9655 25.2162 61.8529 23.2787 60.4718 22.4827L63.7904 20.5548Z" fill="#FFAFF5"/>
</g>
<path d="M22.9509 3.70261C22.9509 2.11046 24.0827 1.46784 25.4638 2.27351L60.472 22.4824C61.8532 23.2784 62.9754 25.2159 62.9658 26.808V38.682L22.9317 19.0966V3.70261H22.9509Z" fill="#FABE12"/>
<path style="mix-blend-mode:screen" d="M60.1548 22.0507C61.2865 22.7221 62.2169 23.7196 62.6677 24.9569C62.7828 25.2734 62.8691 25.6091 62.9267 25.9448C62.9746 26.2134 62.9746 26.434 62.9746 26.5778C62.9746 26.7217 62.9746 26.7984 62.9746 26.7984C62.9746 26.7984 62.965 26.4819 62.8211 25.964C62.7348 25.6187 62.5622 25.2351 62.3416 24.8514C61.7469 23.8251 60.8645 23.0099 59.8574 22.4056C56.8362 20.5929 25.4727 2.26392 25.4727 2.26392C25.4727 2.26392 57.0088 20.1709 60.1644 22.0412L60.1548 22.0507Z" fill="url(#paint1_radial_262_267)"/>
<path d="M62.9271 70.88L61.6322 36.0924L66.2744 33.3972L66.236 68.9521C66.236 69.7386 65.9579 70.2949 65.5071 70.5539L62.1885 72.4817C62.6393 72.2228 62.9175 71.6665 62.9175 70.88H62.9271Z" fill="#FFC931"/>
<path d="M62.9265 70.88C62.9265 72.4721 61.7947 73.1052 60.4136 72.3091L25.4054 52.1002C24.0242 51.3042 22.902 49.3667 22.9116 47.7746L22.9404 12.2292L62.9648 35.3251L62.9361 70.8704L62.9265 70.88Z" fill="white"/>
<path d="M52.7886 39.6706L60.5 44.121V36.4096L52.7886 31.9592V39.6706Z" fill="#FABE12"/>
<path opacity="0.4" d="M52.7886 48.8592L60.5 53.3096V45.5982L52.7886 41.1478V48.8592Z" fill="#FFE496"/>
<path d="M52.7886 58.0573L60.5 62.5076V54.7963L52.7886 50.3363V58.0573Z" fill="#FABE12"/>
<path opacity="0.7" d="M43.5816 34.3475L51.293 38.8075V31.0961L43.5816 26.6361V34.3475Z" fill="#FFF6DC"/>
<path d="M43.5816 43.5454L51.293 47.9957V40.2843L43.5816 35.834V43.5454Z" fill="#FFDD7B"/>
<path opacity="0.4" d="M43.5816 52.7339L51.293 57.1842V49.4728L43.5816 45.0225V52.7339Z" fill="#FFE496"/>
<path opacity="0.4" d="M34.3628 29.0334L42.0742 33.4838V25.7724L34.3628 21.322V29.0334Z" fill="#FFE496"/>
<path d="M34.3628 38.2219L42.0742 42.6723V34.9609L34.3628 30.5105V38.2219Z" fill="#FFDD7B"/>
<path opacity="0.7" d="M34.3628 47.4199L42.0742 51.8703V44.1589L34.3628 39.7085V47.4199Z" fill="#FFF6DC"/>
<path opacity="0.4" d="M25.1558 23.7109L32.8672 28.1709V20.4595L25.1558 15.9995V23.7109Z" fill="#FFE496"/>
<path d="M25.1558 32.9088L32.8672 37.3591V29.6477L25.1558 25.1974V32.9088Z" fill="#FFDD7B"/>
<path opacity="0.4" d="M25.1558 42.0973L32.8672 46.5476V38.8362L25.1558 34.3859V42.0973Z" fill="#FFE496"/>
<path d="M8.60985 31.6708C11.6791 29.8868 15.928 30.1362 20.6181 32.8505C29.9409 38.2312 37.4796 51.285 37.4413 61.9985C37.4221 67.3216 35.5518 71.0622 32.5209 72.827L28.8571 74.9563L4.94597 33.8001L8.60985 31.6708Z" fill="url(#paint2_linear_262_267)"/>
<path d="M16.9541 34.9795C12.8778 32.6201 9.12764 32.1309 6.2023 33.2147C2.44251 34.6055 0.0351028 38.6146 0.0159225 44.638C-0.0128517 55.3514 7.51631 68.3956 16.839 73.7859C26.1618 79.1666 33.7485 74.8505 33.7773 64.1371C33.806 53.4236 26.2769 40.3698 16.9541 34.9891V34.9795Z" fill="#FABE12"/>
<path d="M17.04 36.898C13.3665 34.7783 9.99041 34.3275 7.35281 35.3058C3.96708 36.5623 1.79944 40.1686 1.78026 45.5973C1.75149 55.2461 8.54212 67.005 16.9345 71.8486C25.3365 76.7018 32.1655 72.8077 32.1942 63.1493C32.223 53.4909 25.4324 41.7416 17.04 36.8884V36.898Z" fill="white"/>
<path style="mix-blend-mode:screen" d="M32.9333 56.9532C33.3553 58.4303 33.7294 60.6938 33.7773 64.1275C33.5663 60.8761 33.0964 58.4974 32.6456 57.03C29.8161 45.7602 17.3283 29.8674 6.20239 33.2148C16.7912 29.3975 30.1135 44.427 32.9333 56.9628V56.9532Z" fill="url(#paint3_radial_262_267)"/>
<path d="M15.6995 64.4155L16.3325 54.3254L17.7041 55.1215L18.3467 65.9405L17.0231 67.0339L15.6995 64.4155Z" fill="#FFE087"/>
<path d="M9.7627 37.4925L16.9082 54.2389L16.4478 54.2485L8.92825 37.905L8.75561 36.3895L9.7627 37.4925Z" fill="#FFE087"/>
<path d="M29.1267 51.6689L29.2227 52.0526L17.1089 54.6998L16.9074 54.3161L29.1267 51.6689Z" fill="#E24040"/>
<path d="M17.003 52.5801C16.629 52.3595 16.2741 52.3115 16.0055 52.417C15.6602 52.5417 15.4301 52.9158 15.4301 53.4817C15.4301 54.4792 16.1302 55.6877 16.9934 56.1864C17.8567 56.6852 18.5664 56.2823 18.5664 55.2944C18.5664 54.2969 17.8662 53.0884 17.003 52.5897V52.5801Z" fill="#FABE12"/>
<defs>
<linearGradient id="paint0_linear_262_267" x1="34.9781" y1="-4.44013" x2="55.5035" y2="31.1148" gradientUnits="userSpaceOnUse">
<stop stop-color="#FCD054"/>
<stop offset="1" stop-color="#FFE395"/>
</linearGradient>
<radialGradient id="paint1_radial_262_267" cx="0" cy="0" r="1" gradientUnits="userSpaceOnUse" gradientTransform="translate(51.9254 14.6655) rotate(180) scale(51.0161 51.0161)">
<stop stop-color="#FFAFF5"/>
<stop offset="0.01" stop-color="#FAACF0"/>
<stop offset="0.39" stop-color="#90638B"/>
<stop offset="0.68" stop-color="#422D40"/>
<stop offset="0.9" stop-color="#120C11"/>
<stop offset="1"/>
</radialGradient>
<linearGradient id="paint2_linear_262_267" x1="12.7725" y1="29.273" x2="36.5781" y2="70.4963" gradientUnits="userSpaceOnUse">
<stop stop-color="#FFF5DA"/>
<stop offset="0.07" stop-color="#FFECB5"/>
<stop offset="0.22" stop-color="#FBE5A8"/>
<stop offset="0.38" stop-color="#FFE59C"/>
<stop offset="0.48" stop-color="#FFD459"/>
<stop offset="0.63" stop-color="#FFCE44"/>
<stop offset="0.8" stop-color="#FFC930"/>
<stop offset="1" stop-color="#FFBE05"/>
</linearGradient>
<radialGradient id="paint3_radial_262_267" cx="0" cy="0" r="1" gradientUnits="userSpaceOnUse" gradientTransform="translate(26.018 43.6885) rotate(180) scale(37.9911)">
<stop stop-color="#FFAFF5"/>
<stop offset="0.01" stop-color="#FAACF0"/>
<stop offset="0.39" stop-color="#90638B"/>
<stop offset="0.68" stop-color="#422D40"/>
<stop offset="0.9" stop-color="#120C11"/>
<stop offset="1"/>
</radialGradient>
</defs>
</svg>
