<svg width="82" height="71" viewBox="0 0 82 71" fill="none" xmlns="http://www.w3.org/2000/svg">
<path d="M68.6357 32.1037L68.6357 53.2585C68.6446 54.3856 67.8575 55.7452 66.8825 56.3088L63.215 58.4198C62.723 58.706 62.2847 58.7328 61.9627 58.545C61.6407 58.3661 61.1308 57.9725 61.1219 57.409L59.7086 35.4133L68.6267 32.0947L68.6357 32.1037Z" fill="url(#paint0_linear_262_314)"/>
<path d="M61.4351 36.2633L61.4351 57.4181C61.4441 57.9727 61.6409 58.3663 61.9629 58.5541L57.0879 55.7186C56.7748 55.5308 56.578 55.1461 56.5691 54.5826L56.5691 33.4277L61.4351 36.2633Z" fill="#FFD55F"/>
<path d="M60.2529 37.0143L57.5515 35.449L55.3421 40.7712L58.0435 42.3455L60.2529 37.0143Z" fill="#FDDC8C"/>
<path d="M60.2528 37.0144L58.0434 42.3456L60.2617 42.444L60.2528 37.0144Z" fill="#DEA604"/>
<path d="M15.0633 16.2534L36.889 20.1892C33.4363 19.6078 30.9317 21.9066 30.8601 26.3165C30.7975 29.5546 32.0588 33.222 34.0803 36.3349C35.5115 38.5353 37.3184 40.4496 39.3042 41.7376C39.4294 41.8181 39.5636 41.8986 39.6978 41.9791C43.7051 44.3764 47.1579 43.4282 48.4102 40.0023L41.4331 60.8441C38.6601 68.4473 30.887 70.9787 21.9778 65.6565C21.6826 65.4865 20.9849 65.254 20.6987 65.0661C16.2798 62.2127 11.9057 57.9101 8.73923 53.0262C4.2578 46.1207 1.17179 37.3367 1.30596 30.145C1.48486 20.3502 7.41537 14.9653 15.0812 16.2624L15.0633 16.2534Z" fill="url(#paint1_linear_262_314)"/>
<path d="M49.556 7.19194C51.7117 5.93965 54.7083 6.15433 58 8.11328C63.5549 11.4319 68.1079 18.6504 69.1276 25.2697C69.2797 26.2716 69.3602 27.2645 69.3423 28.2305C69.2797 31.7638 68.0005 34.2505 65.97 35.4312C65.2813 35.798 63.8411 36.5583 61.5691 36.3615C59.3507 36.1647 57.4455 35.1807 56.5152 34.6083C50.209 30.753 45.5129 22.4163 45.5934 15.2156C45.6739 13.4892 45.8707 9.43713 49.556 7.19194Z" fill="url(#paint2_linear_262_314)"/>
<path d="M59.5472 1.40452C59.7261 1.30612 59.905 1.21667 60.0929 1.12722C61.9534 0.223779 63.7871 -0.241359 66.6316 0.134329C68.7426 0.411623 71.5066 1.68181 73.3582 3.22034C74.2975 3.99855 77.1599 6.37792 79.1546 10.421C80.2369 12.6215 81.5161 15.9938 81.4087 19.5449C81.2298 25.3055 78.3495 28.2126 75.9612 29.6348L65.9697 35.4222C68.0002 34.2415 69.2793 31.7637 69.342 28.2215C69.4761 20.9314 64.3954 11.9327 57.9997 8.11324C54.708 6.14535 51.7114 5.93962 49.5557 7.19191L59.5472 1.40452Z" fill="url(#paint3_linear_262_314)"/>
<path d="M49.153 9.777C51.0404 8.68572 53.6612 8.87356 56.5415 10.591C62.1411 13.9364 66.5867 21.8169 66.4704 28.2036C66.4168 31.2986 65.2986 33.4633 63.5186 34.5009L50.4679 42.1131L36.0754 17.3534L49.153 9.777Z" fill="url(#paint4_linear_262_314)"/>
<path d="M30.8603 26.3164C30.9677 20.6453 35.0823 18.4538 40.0647 21.4324C45.047 24.4111 49.0007 31.424 48.8934 37.0951C48.786 42.7662 44.6713 44.9577 39.689 41.979C34.7067 39.0004 30.753 31.9875 30.8603 26.3164Z" fill="#D26AE9"/>
<path d="M21.107 42.6154C17.891 37.0451 17.892 31.0236 21.1093 29.1661C24.3266 27.3086 29.5418 30.3185 32.7579 35.8888C35.9739 41.4592 35.9729 47.4807 32.7556 49.3382C29.5383 51.1957 24.3231 48.1858 21.107 42.6154Z" fill="#FFD14E"/>
<path d="M31.0762 41.6476C31.0762 44.2864 29.2246 45.3598 26.9347 44.0449C24.6447 42.73 22.7931 39.5098 22.7931 36.8621C22.7931 34.2144 24.6447 33.1499 26.9347 34.4648C29.2246 35.7887 31.0762 38.9999 31.0762 41.6476Z" fill="#DEA604"/>
<path d="M21.0573 29.1964L32.6321 22.5145C34.1259 21.62 36.2101 21.7274 38.5089 23.0602C43.053 25.6811 46.7383 32.0678 46.7383 37.3185C46.7383 39.9125 45.8348 41.7462 44.3768 42.6139L32.802 49.2958C34.2601 48.4192 35.1635 46.5944 35.1635 44.0003C35.1635 38.7496 31.4782 32.3629 26.9341 29.7421C24.6353 28.4093 22.5511 28.3019 21.0573 29.1964Z" fill="#FDC526"/>
<path d="M52.8122 39.2237L44.4129 60.8347C45.209 58.7953 45.6562 56.3712 45.7099 53.5982C45.9514 40.1003 36.5503 23.4179 24.6982 16.3335C21.9252 14.6787 19.2686 13.6947 16.8177 13.328L39.7526 16.7271C40.9154 16.897 42.1677 17.3622 43.4826 18.1493C49.0911 21.5037 53.5457 29.3932 53.4294 35.7888C53.4026 37.1037 53.1879 38.2487 52.8122 39.2147L52.8122 39.2237Z" fill="url(#paint5_linear_262_314)"/>
<path d="M21.5215 66.9356C33.5614 74.1273 43.5172 68.8408 43.7676 55.1282C44.0181 41.4156 34.4649 24.4738 22.425 17.282C10.385 10.0903 0.429276 15.3768 0.178819 29.0894C-0.0716377 42.802 9.48159 59.7438 21.5215 66.9356ZM1.93203 30.136C2.1646 17.5325 11.3153 12.6754 22.3892 19.2857C33.4541 25.896 42.2381 41.4782 42.0144 54.0816C41.7819 66.6851 32.6312 71.5422 21.5573 64.9319C10.4924 58.3215 1.70841 42.7394 1.93203 30.136Z" fill="#FFD04C"/>
<path d="M21.6376 67.2035C13.9628 62.5074 8.98044 55.5303 6.14489 50.5033C3.29144 45.4315 -0.0986957 37.5599 -0.000303901 28.8296C-0.000303894 28.9191 0.0533651 29.0175 0.178594 29.089C-0.0718627 42.8017 9.48136 59.7434 21.5213 66.9352C33.5612 74.1269 43.517 68.8405 43.7674 55.1278C44.0179 41.4152 34.4647 24.4734 22.4247 17.2817C10.3848 10.0899 0.429051 15.3764 0.178594 29.089C0.0533651 29.0175 -0.000303894 28.9191 -0.000303901 28.8296C0.151761 25.7436 0.500611 18.5161 6.65475 14.7771C10.7873 12.3709 16.5479 12.7823 22.863 16.5571C35.1355 23.892 44.8766 41.1647 44.6261 55.1457C44.5009 61.9349 42.05 66.6937 38.15 68.9567C37.175 69.4755 34.572 70.8441 30.8777 70.4595C27.7291 70.1285 24.6162 69.0373 21.6376 67.2125L21.6376 67.2035Z" fill="url(#paint6_linear_262_314)"/>
<path d="M8.07779 13.9455C8.73971 13.5608 9.45531 13.2567 10.1977 13.0152C10.2246 13.0062 10.2514 12.9973 10.2782 12.9883C10.4035 12.9526 10.5198 12.9078 10.645 12.8721C12.9528 12.1833 15.9404 12.0581 20.1982 13.5608C21.7457 14.1065 24.3218 15.3766 26.254 16.7542C29.823 19.3035 31.3615 20.9136 33.1326 22.7831C39.8861 29.8854 46.5501 42.9093 46.2102 54.0636C46.1028 57.7132 45.5751 60.1283 44.2602 62.9639C43.7503 64.0731 43.0884 64.9854 42.4354 65.7279C43.1063 64.9318 43.6967 63.9836 44.1976 62.937C43.5267 64.3146 42.6948 65.4953 41.7109 66.4614C41.9524 66.2377 42.1939 65.9962 42.4354 65.7189C41.6483 66.6582 40.7448 67.4274 39.7519 67.9999C39.8056 67.9641 39.8861 67.9104 39.9487 67.8657C39.8145 67.9462 39.6893 68.0357 39.5551 68.1162L38.1329 68.9481C42.0329 66.685 44.4838 61.9173 44.609 55.137C44.8595 41.156 35.1184 23.8744 22.8459 16.5484C16.5308 12.7737 10.7702 12.3711 6.63765 14.7684L8.05989 13.9365L8.07779 13.9455Z" fill="url(#paint7_linear_262_314)"/>
<path d="M72.1152 28.0429L78.4483 24.3844C79.1549 23.973 79.7363 23.0695 79.7363 22.3629C79.7363 21.6562 79.1639 21.4147 78.4483 21.8172L72.1152 25.4757C71.4086 25.8872 70.8271 26.7906 70.8271 27.4973C70.8271 28.2039 71.3996 28.4454 72.1152 28.0429Z" fill="#DEA604"/>
<path d="M49.8414 7.02211C50.0293 6.91477 50.3245 6.75376 50.7091 6.61958C51.4784 6.34229 52.6949 6.12761 54.1171 6.36912C55.5304 6.60169 57.1316 7.20101 58.6254 8.17601C59.0011 8.39963 59.3678 8.65903 59.7435 8.93633C60.1282 9.20468 60.477 9.49986 60.8348 9.80399C61.5504 10.4033 62.2302 11.0742 62.8743 11.7719C64.1355 13.1852 65.2268 14.7416 66.1123 16.2801C66.5596 17.0494 66.9353 17.8187 67.2662 18.5611C67.5883 19.3035 67.8834 20.0102 68.1071 20.69C68.3486 21.3519 68.5096 21.987 68.6527 22.5416C68.7869 23.0962 68.8763 23.5882 68.9658 23.9907C69.0731 24.8047 69.1357 25.2698 69.1357 25.2698C69.1357 25.2698 69.0284 24.8136 68.8316 24.0175C68.608 23.2304 68.277 22.1123 67.7493 20.8242C67.4988 20.1712 67.1768 19.4914 66.8279 18.7758C66.4701 18.0602 66.0587 17.3357 65.6204 16.5843C64.7259 15.0905 63.6346 13.5877 62.3823 12.2281C61.7651 11.5393 61.1211 10.8774 60.4323 10.287C60.0924 9.98289 59.7525 9.68771 59.3947 9.43725C59.0548 9.15995 58.697 8.90949 58.3213 8.67692C56.8901 7.71087 55.4052 7.03105 54.0635 6.75376C52.7217 6.45857 51.541 6.53013 50.7628 6.75376C50.3692 6.8611 50.074 6.96844 49.8683 7.05789C49.6715 7.14734 49.5641 7.20101 49.5641 7.20101C49.5641 7.20101 49.6625 7.13839 49.8504 7.03105L49.8414 7.02211Z" fill="white"/>
<defs>
<linearGradient id="paint0_linear_262_314" x1="64.1632" y1="33.5259" x2="66.6231" y2="85.854" gradientUnits="userSpaceOnUse">
<stop stop-color="#FDDC8C"/>
<stop offset="1" stop-color="#FFCE58"/>
</linearGradient>
<linearGradient id="paint1_linear_262_314" x1="21.9062" y1="36.5943" x2="46.648" y2="59.7081" gradientUnits="userSpaceOnUse">
<stop stop-color="#FDDC8C"/>
<stop offset="0.28" stop-color="#FCE29D"/>
<stop offset="0.76" stop-color="#FBE5A8"/>
<stop offset="1" stop-color="#FFDCB9"/>
</linearGradient>
<linearGradient id="paint2_linear_262_314" x1="62.9108" y1="34.9303" x2="52.6331" y2="9.92911" gradientUnits="userSpaceOnUse">
<stop stop-color="#FFC931"/>
<stop offset="1" stop-color="#FABE12"/>
</linearGradient>
<linearGradient id="paint3_linear_262_314" x1="56.2446" y1="-26.7914" x2="84.8485" y2="59.2763" gradientUnits="userSpaceOnUse">
<stop stop-color="#FFF5DA"/>
<stop offset="0.07" stop-color="#FFECB5"/>
<stop offset="0.22" stop-color="#FBE5A8"/>
<stop offset="0.38" stop-color="#FFE59C"/>
<stop offset="0.48" stop-color="#FFD459"/>
<stop offset="0.63" stop-color="#FFCE44"/>
<stop offset="0.8" stop-color="#FFC930"/>
<stop offset="1" stop-color="#FFBE05"/>
</linearGradient>
<linearGradient id="paint4_linear_262_314" x1="46.2101" y1="11.4765" x2="60.5399" y2="36.2988" gradientUnits="userSpaceOnUse">
<stop stop-color="#FFEEB8"/>
<stop offset="0.65" stop-color="#FFEEB8"/>
<stop offset="1" stop-color="#FFEEB8"/>
</linearGradient>
<linearGradient id="paint5_linear_262_314" x1="49.0643" y1="45.6462" x2="24.1257" y2="7.85369" gradientUnits="userSpaceOnUse">
<stop stop-color="#FBE5A8"/>
<stop offset="1" stop-color="#FDDA86"/>
</linearGradient>
<linearGradient id="paint6_linear_262_314" x1="6.18067" y1="18.5519" x2="37.005" y2="63.2946" gradientUnits="userSpaceOnUse">
<stop stop-color="#FDE097"/>
<stop offset="0.24" stop-color="#FDE097"/>
<stop offset="0.6" stop-color="#FDE097"/>
<stop offset="1" stop-color="#FDE097"/>
</linearGradient>
<linearGradient id="paint7_linear_262_314" x1="14.9486" y1="-30.4136" x2="70.0925" y2="98.6709" gradientUnits="userSpaceOnUse">
<stop stop-color="#FFF5DA"/>
<stop offset="0.07" stop-color="#FFECB5"/>
<stop offset="0.22" stop-color="#FBE5A8"/>
<stop offset="0.38" stop-color="#FFE59C"/>
<stop offset="0.48" stop-color="#FFD459"/>
<stop offset="0.63" stop-color="#FFCE44"/>
<stop offset="0.8" stop-color="#FFC930"/>
<stop offset="1" stop-color="#FFBE05"/>
</linearGradient>
</defs>
</svg>
