<svg width="106" height="80" viewBox="0 0 106 80" fill="none" xmlns="http://www.w3.org/2000/svg">
<path d="M47.0476 66.7538L45.8291 68.6446L47.0336 70.9276L62.3424 79.7655L62.3564 75.5917L47.0476 66.7538Z" fill="#FABE12"/>
<path d="M58.0986 60.6191V64.779L101.784 39.3858C104.277 37.9432 105.523 36.0383 105.523 34.1475V29.9877L58.0986 60.6191Z" fill="url(#paint0_linear_262_343)"/>
<path d="M0.001092 44.6246V48.7845C-0.0129142 50.7033 1.24764 52.6362 3.79676 54.1068L31.0948 69.8637C35.4367 72.3708 42.0616 72.721 47.0198 70.9142V66.7544L0.001092 44.6246Z" fill="url(#paint1_linear_262_343)"/>
<path d="M101.742 24.6654L74.4444 8.90848C69.3882 5.98119 61.2226 5.9952 56.2084 8.90848L3.75528 39.3719C-1.25893 42.2852 -1.24492 47.0192 3.81131 49.9325L31.1093 65.6895C35.4512 68.1966 42.0761 68.5467 47.0343 66.7399L62.3431 75.5778L58.0992 60.6052L101.798 35.2121C106.813 32.2988 106.785 27.5647 101.742 24.6514V24.6654Z" fill="white"/>
<path d="M45.7168 20.0574V24.9175C45.7728 28.0829 47.8878 31.2483 52.0756 33.6713C60.5493 38.5735 74.3034 38.5735 82.7771 33.6713C87.063 31.1923 89.1919 27.9428 89.1359 24.6934V19.8333L45.7168 20.0574Z" fill="url(#paint2_linear_262_343)"/>
<g style="mix-blend-mode:multiply" opacity="0.3">
<path d="M63.3232 31.1081C63.8695 31.2062 64.1356 31.2482 64.6818 31.3182V37.2148C64.2336 37.1868 63.7714 37.1448 63.3232 37.1028V31.1081ZM51.1378 24.4412V33.069C51.446 33.2651 51.7401 33.4752 52.0623 33.6573C52.0903 33.6713 52.1183 33.6853 52.1603 33.6993V25.4637C51.7401 25.0715 51.544 24.8614 51.1378 24.4272V24.4412ZM59.9617 36.5565C60.3959 36.6546 60.8301 36.7386 61.2783 36.8227V30.6459C60.7461 30.4919 60.48 30.4078 59.9617 30.2258C59.9617 32.5928 59.9617 34.6517 59.9617 36.5565ZM56.7683 35.7022C57.1745 35.8282 57.5947 35.9543 58.0149 36.0803V29.4414C57.5107 29.2033 57.2585 29.0913 56.7683 28.8251V35.7162V35.7022ZM53.799 34.5537C54.1772 34.7217 54.5554 34.8758 54.9475 35.0439V27.7187C54.4853 27.4105 54.2472 27.2424 53.799 26.8923V34.5677V34.5537ZM88.7584 27.0604C89.0105 26.276 89.1366 25.4777 89.1226 24.6793V19.8192H88.7584V27.0604ZM85.1728 31.9765C85.481 31.7244 85.7611 31.4723 86.0272 31.2062V21.4579C85.6911 21.9761 85.523 22.2142 85.1728 22.7044V31.9765ZM70.2002 31.3042V37.2008C70.6484 37.1728 71.1106 37.1448 71.5588 37.0888C71.5588 35.282 71.5588 33.3211 71.5588 31.0941C71.0126 31.1922 70.7465 31.2342 70.2002 31.3042ZM48.8268 31.2482C49.093 31.5003 49.3871 31.7664 49.6812 32.0045V22.6904C49.3171 22.2142 49.149 21.9621 48.8268 21.4439V31.2342V31.2482ZM46.0956 20.0293H45.6895V24.8894C45.6895 25.6598 45.8435 26.4301 46.0956 27.2004V20.0293ZM82.7077 25.4497V33.6573C83.0999 33.4332 83.4081 33.2231 83.7302 33.013V24.4132C83.338 24.8474 83.1279 25.0435 82.7077 25.4497ZM47.6503 20.0153H46.978V28.9792C47.1741 29.3014 47.3982 29.6235 47.6503 29.9456V20.0013V20.0153ZM87.2037 29.8896C87.4558 29.5675 87.6799 29.2313 87.876 28.9092V19.8052H87.2037V29.8896ZM73.5897 36.7947C74.0379 36.7246 74.4721 36.6266 74.9063 36.5285V30.2118C74.3881 30.3938 74.122 30.4779 73.5897 30.6319V36.8087V36.7947ZM66.7407 31.4583V37.2989C67.2029 37.2989 67.6511 37.2989 68.1133 37.2989V31.4583C67.5671 31.4723 67.287 31.4723 66.7407 31.4583ZM76.8532 36.0523C77.2733 35.9403 77.6935 35.8142 78.0997 35.6742V28.7971C77.6095 29.0632 77.3574 29.1893 76.8532 29.4134V36.0523ZM79.9205 35.0019C80.3127 34.8478 80.6909 34.6937 81.069 34.5116V26.8643C80.6208 27.2144 80.3967 27.3825 79.9205 27.6906V35.0019Z" fill="#FBAE17"/>
</g>
<path d="M67.4263 32.4669C79.4162 32.4669 89.1359 26.8546 89.1359 19.9314C89.1359 13.0082 79.4162 7.39587 67.4263 7.39587C55.4365 7.39587 45.7168 13.0082 45.7168 19.9314C45.7168 26.8546 55.4365 32.4669 67.4263 32.4669Z" fill="url(#paint3_linear_262_343)"/>
<path d="M67.4263 31.5002C78.4879 31.5002 87.4551 26.3206 87.4551 19.9312C87.4551 13.5417 78.4879 8.36206 67.4263 8.36206C56.3647 8.36206 47.3975 13.5417 47.3975 19.9312C47.3975 26.3206 56.3647 31.5002 67.4263 31.5002Z" fill="url(#paint4_linear_262_343)"/>
<path d="M53.2676 12.9838C61.0831 8.47382 73.7727 8.47382 81.5881 12.9838C85.2297 15.0847 87.1486 17.7879 87.4007 20.5471C87.6948 17.3817 85.7619 14.1743 81.5881 11.7513C73.7727 7.24128 61.0831 7.24128 53.2676 11.7513C49.0798 14.1603 47.161 17.3817 47.4551 20.5471C47.7072 17.8019 49.626 15.0847 53.2676 12.9838Z" fill="url(#paint5_linear_262_343)"/>
<path d="M45.0042 12.6483V17.5084C45.0603 20.6738 47.1752 23.8392 51.363 26.2623C59.8368 31.1644 73.5908 31.1644 82.0646 26.2623C86.3504 23.7832 88.4794 20.5338 88.4234 17.2843V12.4242L44.9902 12.6483H45.0042Z" fill="url(#paint6_linear_262_343)"/>
<g style="mix-blend-mode:multiply" opacity="0.3">
<path d="M62.624 23.7136C63.1702 23.8117 63.4364 23.8537 63.9826 23.9237V29.8203C63.5344 29.7923 63.0722 29.7503 62.624 29.7083V23.7136ZM50.4386 17.0467V25.6745C50.7468 25.8706 51.0409 26.0807 51.363 26.2627C51.391 26.2767 51.4191 26.2908 51.4611 26.3048V18.0691C51.0409 17.677 50.8448 17.4669 50.4386 17.0327V17.0467ZM59.2625 29.162C59.6967 29.2601 60.1309 29.3441 60.5791 29.4281V23.2514C60.0469 23.0973 59.7807 23.0133 59.2625 22.8312C59.2625 25.1983 59.2625 27.2572 59.2625 29.162ZM56.0691 28.3076C56.4753 28.4477 56.8955 28.5597 57.3157 28.6858V22.0469C56.8114 21.8088 56.5593 21.6967 56.0691 21.4306V28.3216V28.3076ZM53.0998 27.1591C53.478 27.3272 53.8561 27.4813 54.2483 27.6494V20.3241C53.7861 20.016 53.548 19.8479 53.0998 19.4978V27.1731V27.1591ZM88.0592 19.6658C88.3113 18.8815 88.4374 18.0831 88.4233 17.2848V12.4247H88.0592V19.6658ZM84.4736 24.582C84.7817 24.3299 85.0619 24.0778 85.328 23.8117V14.0634C84.9918 14.5816 84.8238 14.8197 84.4736 15.3099V24.582ZM69.501 23.9097V29.8063C69.9492 29.7783 70.4114 29.7503 70.8596 29.6943C70.8596 27.8875 70.8596 25.9266 70.8596 23.6996C70.3134 23.7977 70.0473 23.8397 69.501 23.9097ZM48.1276 23.8537C48.3937 24.1058 48.6879 24.3719 48.982 24.61V15.2959C48.6178 14.8197 48.4498 14.5676 48.1276 14.0494V23.8397V23.8537ZM45.3964 12.6347H44.9902V17.4949C44.9902 18.2652 45.1443 19.0356 45.3964 19.8059V12.6347ZM82.0085 18.0551V26.2627C82.4007 26.0386 82.7088 25.8286 83.031 25.6185V17.0187C82.6388 17.4529 82.4287 17.649 82.0085 18.0551ZM46.9511 12.6207H46.2788V21.5847C46.4749 21.9068 46.699 22.229 46.9511 22.5511V12.6067V12.6207ZM86.5045 22.4951C86.7566 22.1729 86.9807 21.8368 87.1768 21.5147V12.4106H86.5045V22.4951ZM72.8905 29.4001C73.3387 29.3301 73.7729 29.232 74.2071 29.134V22.8172C73.6889 22.9993 73.4227 23.0833 72.8905 23.2374V29.4141V29.4001ZM66.0415 24.0638V29.9043C66.5037 29.9043 66.9519 29.9043 67.4141 29.9043V24.0638C66.8679 24.0778 66.5877 24.0778 66.0415 24.0638ZM76.1539 28.6578C76.5741 28.5457 76.9943 28.4197 77.4005 28.2796V21.4026C76.9103 21.6687 76.6582 21.7948 76.1539 22.0189V28.6438V28.6578ZM79.2213 27.6073C79.5995 27.4533 79.9916 27.2992 80.3698 27.1171V19.4698C79.9216 19.8199 79.6975 19.988 79.2213 20.2961V27.6073Z" fill="#FBAE17"/>
</g>
<path d="M82.0783 21.4021C73.6046 26.3042 59.8505 26.3042 51.3768 21.4021C42.9031 16.4999 42.9031 8.57243 51.3768 3.67027C59.8505 -1.23189 73.6046 -1.23189 82.0783 3.67027C90.552 8.57243 90.552 16.4999 82.0783 21.4021Z" fill="url(#paint7_linear_262_343)"/>
<path d="M80.8744 20.7159C73.059 25.2259 60.3694 25.2259 52.554 20.7159C44.7385 16.2059 44.7385 8.88072 52.554 4.35673C60.3834 -0.153253 73.059 -0.153253 80.8744 4.35673C88.6899 8.86672 88.6899 16.1919 80.8744 20.7159Z" fill="url(#paint8_linear_262_343)"/>
<path d="M52.5538 5.58927C60.3692 1.07929 73.0588 1.07929 80.8742 5.58927C84.5158 7.6902 86.4347 10.3934 86.6868 13.1526C86.9809 9.98721 85.0481 6.7798 80.8742 4.35673C73.0588 -0.153253 60.3832 -0.153253 52.5538 4.35673C48.3659 6.76579 46.4471 9.98721 46.7412 13.1526C46.9933 10.4074 48.9122 7.6902 52.5538 5.58927Z" fill="#FBAE17"/>
<path d="M18.8389 39.8901V44.7503C18.8949 47.9156 21.0098 51.081 25.1977 53.5041C33.6714 58.4063 47.4254 58.4063 55.8992 53.5041C60.1851 51.025 62.314 47.7756 62.258 44.5262V39.666L18.8389 39.8901Z" fill="url(#paint9_linear_262_343)"/>
<g style="mix-blend-mode:multiply" opacity="0.3">
<path d="M36.459 50.9553C37.0052 51.0534 37.2713 51.0954 37.8176 51.1654V57.062C37.3694 57.034 36.9072 56.992 36.459 56.95V50.9553ZM24.2736 44.2884V52.9162C24.5817 53.1123 24.8759 53.3224 25.198 53.5044C25.226 53.5184 25.254 53.5324 25.296 53.5465V45.3108C24.8759 44.9187 24.6798 44.7086 24.2736 44.2744V44.2884ZM33.0975 56.4037C33.5317 56.5018 33.9659 56.5858 34.4141 56.6698V50.4931C33.8818 50.339 33.6157 50.255 33.0975 50.0729C33.0975 52.44 33.0975 54.4989 33.0975 56.4037ZM29.9041 55.5493C30.3103 55.6754 30.7304 55.8014 31.1506 55.9275V49.2886C30.6464 49.0505 30.3943 48.9384 29.9041 48.6723V55.5633V55.5493ZM26.9348 54.4008C27.3129 54.5689 27.6911 54.723 28.0833 54.891V47.5658C27.6211 47.2577 27.383 47.0896 26.9348 46.7395V54.4148V54.4008ZM61.8941 46.9075C62.1463 46.1232 62.2723 45.3248 62.2583 44.5265V39.6664H61.8941V46.9075ZM58.3086 51.8237C58.6167 51.5716 58.8968 51.3195 59.163 51.0534V41.3051C58.8268 41.8233 58.6587 42.0614 58.3086 42.5516V51.8237ZM43.336 51.1514V57.048C43.7842 57.02 44.2464 56.992 44.6946 56.9359C44.6946 55.1292 44.6946 53.1683 44.6946 50.9413C44.1483 51.0394 43.8822 51.0814 43.336 51.1514ZM21.9626 51.0954C22.2287 51.3475 22.5228 51.6136 22.817 51.8517V42.5376C22.4528 42.0614 22.2847 41.8093 21.9626 41.2911V51.0814V51.0954ZM19.2314 39.8764H18.8252V44.7366C18.8252 45.5069 18.9793 46.2773 19.2314 47.0476V39.8764ZM55.8435 45.2968V53.5044C56.2357 53.2803 56.5438 53.0702 56.8659 52.8602V44.2604C56.4738 44.6946 56.2637 44.8906 55.8435 45.2968ZM20.7861 39.8624H20.1138V48.8264C20.3098 49.1485 20.5339 49.4707 20.7861 49.7928V39.8484V39.8624ZM60.3395 49.7368C60.5916 49.4146 60.8157 49.0785 61.0118 48.7564V39.6523H60.3395V49.7368ZM46.7255 56.6418C47.1737 56.5718 47.6079 56.4737 48.0421 56.3757V50.0589C47.5238 50.241 47.2577 50.325 46.7255 50.4791V56.6558V56.6418ZM39.8765 51.3055V57.146C40.3387 57.146 40.7869 57.146 41.2491 57.146V51.3055C40.7028 51.3195 40.4227 51.3195 39.8765 51.3055ZM49.9889 55.8995C50.4091 55.7874 50.8293 55.6614 51.2355 55.5213V48.6443C50.7452 48.9104 50.4931 49.0365 49.9889 49.2606V55.8995ZM53.0563 54.849C53.4484 54.695 53.8266 54.5409 54.2048 54.3588V46.7114C53.7566 47.0616 53.5325 47.2297 53.0563 47.5378V54.849Z" fill="#FBAE17"/>
</g>
<path d="M55.9132 48.6443C47.4395 53.5464 33.6855 53.5464 25.2117 48.6443C16.738 43.7421 16.738 35.8146 25.2117 30.9125C33.6855 26.0103 47.4395 26.0103 55.9132 30.9125C64.387 35.8146 64.387 43.7421 55.9132 48.6443Z" fill="url(#paint10_linear_262_343)"/>
<path opacity="0.3" d="M40.562 51.3469C51.6236 51.3469 60.5908 46.1673 60.5908 39.7778C60.5908 33.3884 51.6236 28.2087 40.562 28.2087C29.5004 28.2087 20.5332 33.3884 20.5332 39.7778C20.5332 46.1673 29.5004 51.3469 40.562 51.3469Z" fill="#FFC444"/>
<path d="M26.3887 32.8315C34.2042 28.3215 46.8938 28.3215 54.7092 32.8315C58.3508 34.9324 60.2696 37.6356 60.5218 40.3948C60.8159 37.2294 58.883 34.022 54.7092 31.5989C46.8938 27.0889 34.2042 27.0889 26.3887 31.5989C22.2009 34.008 20.282 37.2294 20.5762 40.3948C20.8283 37.6496 22.7471 34.9324 26.3887 32.8315Z" fill="url(#paint11_linear_262_343)"/>
<path d="M18.181 34.0492V38.9093C18.237 42.0747 20.352 45.2401 24.5398 47.6632C33.0135 52.5653 46.7676 52.5653 55.2413 47.6632C59.5272 45.1841 61.6561 41.9346 61.6001 38.6852V33.8251L18.167 34.0492H18.181Z" fill="url(#paint12_linear_262_343)"/>
<g style="mix-blend-mode:multiply" opacity="0.3">
<path d="M35.8008 45.1005C36.347 45.1985 36.6131 45.2405 37.1593 45.3105V51.2071C36.7112 51.1791 36.2489 51.1371 35.8008 51.0951V45.1005ZM23.6154 38.4335V47.0613C23.9235 47.2574 24.2177 47.4675 24.5398 47.6496C24.5678 47.6636 24.5958 47.6776 24.6378 47.6916V39.456C24.2177 39.0638 24.0216 38.8537 23.6154 38.4195V38.4335ZM32.4393 50.5489C32.8735 50.6469 33.3077 50.7309 33.7559 50.815V44.6383C33.2236 44.4842 32.9575 44.4002 32.4393 44.2181C32.4393 46.5851 32.4393 48.644 32.4393 50.5489ZM29.2459 49.6945C29.652 49.8205 30.0722 49.9466 30.4924 50.0726V43.4337C29.9882 43.1956 29.7361 43.0836 29.2459 42.8175V49.7085V49.6945ZM26.2766 48.546C26.6547 48.714 27.0329 48.8681 27.4251 49.0362V41.711C26.9629 41.4028 26.7248 41.2348 26.2766 40.8846V48.56V48.546ZM61.2359 41.0527C61.4881 40.2683 61.6141 39.47 61.6001 38.6716V33.8115H61.2359V41.0527ZM57.6504 45.9688C57.9585 45.7167 58.2386 45.4646 58.5047 45.1985V35.4502C58.1686 35.9684 58.0005 36.2065 57.6504 36.6968V45.9688ZM42.6778 45.2965V51.1931C43.126 51.1651 43.5882 51.1371 44.0364 51.0811C44.0364 49.2743 44.0364 47.3134 44.0364 45.0865C43.4901 45.1845 43.224 45.2265 42.6778 45.2965ZM21.3044 45.2405C21.5705 45.4926 21.8646 45.7587 22.1587 45.9969V36.6828C21.7946 36.2065 21.6265 35.9544 21.3044 35.4362V45.2265V45.2405ZM18.5732 34.0216H18.167V38.8817C18.167 39.6521 18.3211 40.4224 18.5732 41.1927V34.0216ZM55.1853 39.442V47.6496C55.5775 47.4255 55.8856 47.2154 56.2077 47.0053V38.4055C55.8156 38.8397 55.6055 39.0358 55.1853 39.442ZM20.1279 34.0076H19.4556V42.9715C19.6516 43.2937 19.8757 43.6158 20.1279 43.9379V33.9936V34.0076ZM59.6813 43.8819C59.9334 43.5598 60.1575 43.2236 60.3536 42.9015V33.7975H59.6813V43.8819ZM46.0673 50.787C46.5155 50.7169 46.9497 50.6189 47.3838 50.5208V44.2041C46.8656 44.3861 46.5995 44.4702 46.0673 44.6243V50.801V50.787ZM39.2183 45.4506V51.2912C39.6805 51.2912 40.1287 51.2912 40.5909 51.2912V45.4506C40.0446 45.4646 39.7645 45.4646 39.2183 45.4506ZM49.3307 50.0446C49.7509 49.9326 50.1711 49.8065 50.5773 49.6665V42.7894C50.087 43.0556 49.8349 43.1816 49.3307 43.4057V50.0446ZM52.3981 48.9942C52.7762 48.8401 53.1684 48.686 53.5466 48.504V40.8566C53.0984 41.2067 52.8743 41.3748 52.3981 41.683V48.9942Z" fill="#FBAE17"/>
</g>
<path d="M55.2551 42.7894C46.7813 47.6916 33.0273 47.6916 24.5535 42.7894C16.0798 37.8872 16.0798 29.9598 24.5535 25.0576C33.0273 20.1554 46.7813 20.1554 55.2551 25.0576C63.7288 29.9598 63.7288 37.8872 55.2551 42.7894Z" fill="url(#paint13_linear_262_343)"/>
<path d="M39.8901 45.4921C50.9517 45.4921 59.919 40.3124 59.919 33.923C59.919 27.5335 50.9517 22.3539 39.8901 22.3539C28.8285 22.3539 19.8613 27.5335 19.8613 33.923C19.8613 40.3124 28.8285 45.4921 39.8901 45.4921Z" fill="url(#paint14_linear_262_343)"/>
<path d="M25.7305 26.9766C33.546 22.4666 46.2356 22.4666 54.051 26.9766C57.6926 29.0775 59.6114 31.7807 59.8636 34.5399C60.1577 31.3745 58.2248 28.1671 54.051 25.7441C46.2356 21.2341 33.546 21.2341 25.7305 25.7441C21.5427 28.1531 19.6238 31.3745 19.918 34.5399C20.1701 31.7947 22.0889 29.0775 25.7305 26.9766Z" fill="#FBAE17"/>
<path d="M21.6553 24.9316V29.7918C21.7113 32.9572 23.8262 36.1225 28.0141 38.5456C36.4878 43.4478 50.2419 43.4478 58.7156 38.5456C63.0015 36.0665 65.1304 32.8171 65.0744 29.5677V24.7075L21.6553 24.9316Z" fill="url(#paint15_linear_262_343)"/>
<g style="mix-blend-mode:multiply" opacity="0.3">
<path d="M39.2754 35.9968C39.8216 36.0949 40.0877 36.1369 40.634 36.2069V42.1035C40.1858 42.0755 39.7236 42.0335 39.2754 41.9915V35.9968ZM27.09 29.3299V37.9577C27.3981 38.1538 27.6923 38.3639 28.0144 38.5459C28.0424 38.56 28.0704 38.574 28.1124 38.588V30.3523C27.6923 29.9602 27.4962 29.7501 27.09 29.3159V29.3299ZM35.9139 41.4452C36.3481 41.5433 36.7823 41.6273 37.2305 41.7113V35.5346C36.6982 35.3806 36.4321 35.2965 35.9139 35.1144C35.9139 37.4815 35.9139 39.5404 35.9139 41.4452ZM32.7205 40.5908C33.1267 40.7169 33.5468 40.843 33.967 40.969V34.3301C33.4628 34.092 33.2107 33.9799 32.7205 33.7138V40.6048V40.5908ZM29.7512 39.4423C30.1293 39.6104 30.5075 39.7645 30.8997 39.9326V32.6073C30.4375 32.2992 30.1994 32.1311 29.7512 31.781V39.4563V39.4423ZM64.7106 31.949C64.9627 31.1647 65.0887 30.3663 65.0747 29.568V24.7079H64.7106V31.949ZM61.125 36.8652C61.4331 36.6131 61.7132 36.361 61.9794 36.0949V26.3466C61.6432 26.8648 61.4751 27.1029 61.125 27.5931V36.8652ZM46.1524 36.1929V42.0895C46.6006 42.0615 47.0628 42.0335 47.511 41.9775C47.511 40.1707 47.511 38.2098 47.511 35.9828C46.9647 36.0809 46.6986 36.1229 46.1524 36.1929ZM24.779 36.1369C25.0451 36.389 25.3392 36.6551 25.6334 36.8932V27.5791C25.2692 27.1029 25.1011 26.8508 24.779 26.3326V36.1229V36.1369ZM22.0478 24.9179H21.6416V29.7781C21.6416 30.5484 21.7957 31.3188 22.0478 32.0891V24.9179ZM58.6599 30.3383V38.5459C59.0521 38.3218 59.3602 38.1118 59.6823 37.9017V29.3019C59.2902 29.7361 59.0801 29.9322 58.6599 30.3383ZM23.6025 24.9039H22.9302V33.8679C23.1263 34.19 23.3504 34.5122 23.6025 34.8343V24.8899V24.9039ZM63.1559 34.7783C63.408 34.4561 63.6321 34.12 63.8282 33.7979V24.6938H63.1559V34.7783ZM49.5419 41.6833C49.9901 41.6133 50.4243 41.5152 50.8585 41.4172V35.1004C50.3402 35.2825 50.0741 35.3665 49.5419 35.5206V41.6973V41.6833ZM42.6929 36.347V42.1875C43.1551 42.1875 43.6033 42.1875 44.0655 42.1875V36.347C43.5192 36.361 43.2391 36.361 42.6929 36.347ZM52.8053 40.941C53.2255 40.8289 53.6457 40.7029 54.0519 40.5628V33.6858C53.5616 33.9519 53.3095 34.078 52.8053 34.3021V40.941ZM55.8727 39.8905C56.2508 39.7365 56.643 39.5824 57.0212 39.4003V31.753C56.573 32.1031 56.3489 32.2712 55.8727 32.5793V39.8905Z" fill="#FBAE17"/>
</g>
<path d="M58.716 33.6853C50.2423 38.5874 36.4882 38.5874 28.0145 33.6853C19.5407 28.7831 19.5407 20.8556 28.0145 15.9535C36.4882 11.0513 50.2423 11.0513 58.716 15.9535C67.1897 20.8556 67.1897 28.7831 58.716 33.6853Z" fill="url(#paint16_linear_262_343)"/>
<path opacity="0.3" d="M57.5258 32.9856C49.7104 37.4956 37.0208 37.4956 29.2053 32.9856C21.3899 28.4756 21.3899 21.1504 29.2053 16.6404C37.0208 12.1304 49.7104 12.1304 57.5258 16.6404C65.3412 21.1504 65.3412 28.4756 57.5258 32.9856Z" fill="#FFC444"/>
<path d="M29.2051 17.873C37.0206 13.363 49.7102 13.363 57.5256 17.873C61.1672 19.9739 63.0861 22.6771 63.3382 25.4363C63.6323 22.2709 61.6994 19.0635 57.5256 16.6404C49.7102 12.1304 37.0206 12.1304 29.2051 16.6404C25.0173 19.0495 23.0985 22.2709 23.3926 25.4363C23.6447 22.6911 25.5635 19.9739 29.2051 17.873Z" fill="url(#paint17_linear_262_343)"/>
<path d="M20.9805 19.5107V24.3709C21.0365 27.5363 23.1514 30.7016 27.3393 33.1247C35.813 38.0269 49.567 38.0269 58.0408 33.1247C62.3267 30.6456 64.4556 27.3962 64.3996 24.1468V19.2866L20.9805 19.5107Z" fill="url(#paint18_linear_262_343)"/>
<g style="mix-blend-mode:multiply" opacity="0.3">
<path d="M38.5869 30.5752C39.1331 30.6732 39.3992 30.7153 39.9455 30.7853V36.6819C39.4973 36.6539 39.0351 36.6118 38.5869 36.5698V30.5752ZM26.4015 23.9083V32.5361C26.7097 32.7321 27.0038 32.9422 27.3259 33.1243C27.3539 33.1383 27.382 33.1523 27.424 33.1663V24.9307C27.0038 24.5385 26.8077 24.3284 26.4015 23.8942V23.9083ZM35.2254 36.0236C35.6596 36.1216 36.0938 36.2057 36.542 36.2897V30.113C36.0098 29.9589 35.7436 29.8749 35.2254 29.6928V36.0236ZM32.032 35.1692C32.4382 35.2953 32.8584 35.4213 33.2785 35.5474V28.9085C32.7743 28.6704 32.5222 28.5583 32.032 28.2922V35.1832V35.1692ZM29.0627 34.0207C29.4409 34.1888 29.819 34.3428 30.2112 34.5109V27.1857C29.749 26.8776 29.5109 26.7095 29.0627 26.3593V34.0347V34.0207ZM64.0221 26.5274C64.2742 25.7431 64.4002 24.9447 64.3862 24.1464V19.2862H64.0221V26.5274ZM60.4365 31.4436C60.7446 31.1915 61.0248 30.9393 61.2909 30.6732V20.9249C60.9547 21.4432 60.7867 21.6813 60.4365 22.1715V31.4436ZM45.4639 30.7713V36.6679C45.9121 36.6399 46.3743 36.6118 46.8225 36.5558V30.5612C46.2763 30.6592 46.0102 30.7012 45.4639 30.7713ZM24.0905 30.7153C24.3566 30.9674 24.6508 31.2335 24.9449 31.4716V22.1575C24.5807 21.6813 24.4126 21.4292 24.0905 20.9109V30.7012V30.7153ZM21.3593 19.4963H20.9531V24.3565C20.9531 25.1268 21.1072 25.8971 21.3593 26.6675V19.4963ZM57.9714 24.9167V33.1243C58.3636 32.9002 58.6717 32.6901 58.9939 32.48V23.8802C58.6017 24.3144 58.3916 24.5105 57.9714 24.9167ZM22.914 19.4823H22.2417V28.4463C22.4378 28.7684 22.6619 29.0905 22.914 29.4127V19.4683V19.4823ZM62.4674 29.3567C62.7195 29.0345 62.9436 28.6984 63.1397 28.3762V19.2722H62.4674V29.3567ZM48.8534 36.2617C49.3016 36.1917 49.7358 36.0936 50.17 35.9956V29.6788C49.6518 29.8609 49.3856 29.9449 48.8534 30.099V36.2757V36.2617ZM42.0044 30.9253V36.7659C42.4666 36.7659 42.9148 36.7659 43.377 36.7659V30.9253C42.8308 30.9393 42.5506 30.9393 42.0044 30.9253ZM52.1168 35.5194C52.537 35.4073 52.9572 35.2813 53.3634 35.1412V28.2642C52.8732 28.5303 52.6211 28.6563 52.1168 28.8804V35.5194ZM55.1842 34.4689C55.5764 34.3148 55.9545 34.1608 56.3327 33.9787V26.3313C55.8845 26.6815 55.6604 26.8495 55.1842 27.1577V34.4689Z" fill="#FBAE17"/>
</g>
<path d="M42.69 31.9339C54.6799 31.9339 64.3996 26.3216 64.3996 19.3984C64.3996 12.4753 54.6799 6.86292 42.69 6.86292C30.7002 6.86292 20.9805 12.4753 20.9805 19.3984C20.9805 26.3216 30.7002 31.9339 42.69 31.9339Z" fill="url(#paint19_linear_262_343)"/>
<path d="M56.851 27.5638C49.0355 32.0738 36.346 32.0738 28.5305 27.5638C20.7151 23.0538 20.7151 15.7286 28.5305 11.2046C36.346 6.69465 49.0355 6.69465 56.851 11.2046C64.6664 15.7146 64.6664 23.0398 56.851 27.5638Z" fill="url(#paint20_linear_262_343)"/>
<path d="M28.5303 12.4512C36.3458 7.94123 49.0354 7.94123 56.8508 12.4512C60.4924 14.5521 62.4112 17.2553 62.6634 20.0145C62.9575 16.8491 61.0246 13.6417 56.8508 11.2187C49.0354 6.70869 36.3458 6.70869 28.5303 11.2187C24.3425 13.6277 22.4237 16.8491 22.7178 20.0145C22.9699 17.2693 24.8887 14.5521 28.5303 12.4512Z" fill="#FBAE17"/>
<defs>
<linearGradient id="paint0_linear_262_343" x1="95.5666" y1="3.66732" x2="75.9226" y2="93.2403" gradientUnits="userSpaceOnUse">
<stop stop-color="#FFF5DA"/>
<stop offset="0.07" stop-color="#FFECB5"/>
<stop offset="0.22" stop-color="#FBE5A8"/>
<stop offset="0.38" stop-color="#FFE59C"/>
<stop offset="0.48" stop-color="#FFD459"/>
<stop offset="0.63" stop-color="#FFCE44"/>
<stop offset="0.8" stop-color="#FFC930"/>
<stop offset="1" stop-color="#FFBE05"/>
</linearGradient>
<linearGradient id="paint1_linear_262_343" x1="37.1481" y1="23.8773" x2="24.6254" y2="95.6967" gradientUnits="userSpaceOnUse">
<stop stop-color="#FFF5DA"/>
<stop offset="0.07" stop-color="#FFECB5"/>
<stop offset="0.22" stop-color="#FBE5A8"/>
<stop offset="0.38" stop-color="#FFE59C"/>
<stop offset="0.48" stop-color="#FFD459"/>
<stop offset="0.63" stop-color="#FFCE44"/>
<stop offset="0.8" stop-color="#FFC930"/>
<stop offset="1" stop-color="#FFBE05"/>
</linearGradient>
<linearGradient id="paint2_linear_262_343" x1="42.3789" y1="28.6672" x2="89.1499" y2="28.5871" gradientUnits="userSpaceOnUse">
<stop stop-color="#FFDA92"/>
<stop offset="0.49" stop-color="#FFCC67"/>
<stop offset="1" stop-color="#FFDB65"/>
</linearGradient>
<linearGradient id="paint3_linear_262_343" x1="45.7168" y1="19.9314" x2="89.1359" y2="19.9314" gradientUnits="userSpaceOnUse">
<stop stop-color="#FFC445"/>
<stop offset="1" stop-color="#FFCB21"/>
</linearGradient>
<linearGradient id="paint4_linear_262_343" x1="47.3206" y1="19.9594" x2="87.532" y2="19.9594" gradientUnits="userSpaceOnUse">
<stop stop-color="#FBCC34"/>
<stop offset="1" stop-color="#FFE89D"/>
</linearGradient>
<linearGradient id="paint5_linear_262_343" x1="47.4271" y1="14.4545" x2="87.4287" y2="14.4545" gradientUnits="userSpaceOnUse">
<stop stop-color="#EF9526"/>
<stop offset="1" stop-color="#CC771B"/>
</linearGradient>
<linearGradient id="paint6_linear_262_343" x1="41.6513" y1="21.2582" x2="88.4374" y2="21.178" gradientUnits="userSpaceOnUse">
<stop stop-color="#FFDA92"/>
<stop offset="0.49" stop-color="#FFCC67"/>
<stop offset="1" stop-color="#FFDB65"/>
</linearGradient>
<linearGradient id="paint7_linear_262_343" x1="45.004" y1="12.5362" x2="88.4371" y2="12.5362" gradientUnits="userSpaceOnUse">
<stop stop-color="#FFC445"/>
<stop offset="1" stop-color="#FFCB21"/>
</linearGradient>
<linearGradient id="paint8_linear_262_343" x1="46.6155" y1="12.5646" x2="86.8129" y2="12.5646" gradientUnits="userSpaceOnUse">
<stop stop-color="#FBCC34"/>
<stop offset="1" stop-color="#FFE89D"/>
</linearGradient>
<linearGradient id="paint9_linear_262_343" x1="15.501" y1="48.5" x2="62.272" y2="48.4199" gradientUnits="userSpaceOnUse">
<stop stop-color="#FFDA92"/>
<stop offset="0.49" stop-color="#FFCC67"/>
<stop offset="1" stop-color="#FFDB65"/>
</linearGradient>
<linearGradient id="paint10_linear_262_343" x1="18.8389" y1="39.7784" x2="62.272" y2="39.7784" gradientUnits="userSpaceOnUse">
<stop stop-color="#FFC445"/>
<stop offset="1" stop-color="#FFCB21"/>
</linearGradient>
<linearGradient id="paint11_linear_262_343" x1="20.5482" y1="34.3021" x2="60.5638" y2="34.3021" gradientUnits="userSpaceOnUse">
<stop stop-color="#EF9526"/>
<stop offset="1" stop-color="#CC771B"/>
</linearGradient>
<linearGradient id="paint12_linear_262_343" x1="14.828" y1="42.6591" x2="61.6141" y2="42.5789" gradientUnits="userSpaceOnUse">
<stop stop-color="#FFDA92"/>
<stop offset="0.49" stop-color="#FFCC67"/>
<stop offset="1" stop-color="#FFDB65"/>
</linearGradient>
<linearGradient id="paint13_linear_262_343" x1="18.1807" y1="33.9235" x2="61.6138" y2="33.9235" gradientUnits="userSpaceOnUse">
<stop stop-color="#FFC445"/>
<stop offset="1" stop-color="#FFCB21"/>
</linearGradient>
<linearGradient id="paint14_linear_262_343" x1="19.7844" y1="33.9512" x2="59.9958" y2="33.9512" gradientUnits="userSpaceOnUse">
<stop stop-color="#FBCC34"/>
<stop offset="1" stop-color="#FFE89D"/>
</linearGradient>
<linearGradient id="paint15_linear_262_343" x1="18.3174" y1="33.5415" x2="65.0884" y2="33.4614" gradientUnits="userSpaceOnUse">
<stop stop-color="#FFDA92"/>
<stop offset="0.49" stop-color="#FFCC67"/>
<stop offset="1" stop-color="#FFDB65"/>
</linearGradient>
<linearGradient id="paint16_linear_262_343" x1="21.6557" y1="24.8194" x2="65.0888" y2="24.8194" gradientUnits="userSpaceOnUse">
<stop stop-color="#FFC445"/>
<stop offset="1" stop-color="#FFCB21"/>
</linearGradient>
<linearGradient id="paint17_linear_262_343" x1="23.3646" y1="19.3436" x2="63.3662" y2="19.3436" gradientUnits="userSpaceOnUse">
<stop stop-color="#EF9526"/>
<stop offset="1" stop-color="#CC771B"/>
</linearGradient>
<linearGradient id="paint18_linear_262_343" x1="17.6426" y1="28.1206" x2="64.4136" y2="28.0405" gradientUnits="userSpaceOnUse">
<stop stop-color="#FFDA92"/>
<stop offset="0.49" stop-color="#FFCC67"/>
<stop offset="1" stop-color="#FFDB65"/>
</linearGradient>
<linearGradient id="paint19_linear_262_343" x1="20.9665" y1="19.3984" x2="64.3996" y2="19.3984" gradientUnits="userSpaceOnUse">
<stop stop-color="#FFC445"/>
<stop offset="1" stop-color="#FFCB21"/>
</linearGradient>
<linearGradient id="paint20_linear_262_343" x1="22.5921" y1="19.4125" x2="62.7894" y2="19.4125" gradientUnits="userSpaceOnUse">
<stop stop-color="#FBCC34"/>
<stop offset="1" stop-color="#FFE89D"/>
</linearGradient>
</defs>
</svg>
