<svg width="45" height="45" viewBox="0 0 45 45" fill="none" xmlns="http://www.w3.org/2000/svg">
<g filter="url(#filter0_d_105_643)">
<path fill-rule="evenodd" clip-rule="evenodd" d="M34.6875 16.5C34.6875 9.76903 29.231 4.3125 22.5 4.3125C15.769 4.3125 10.3125 9.76903 10.3125 16.5C10.3125 23.231 15.769 28.6875 22.5 28.6875C29.231 28.6875 34.6875 23.231 34.6875 16.5ZM35 16.5C35 9.59644 29.4036 4 22.5 4C15.5964 4 10 9.59644 10 16.5C10 23.4036 15.5964 29 22.5 29C29.4036 29 35 23.4036 35 16.5Z" fill="url(#paint0_linear_105_643)" shape-rendering="crispEdges"/>
</g>
<g clip-path="url(#clip0_105_643)">
<path d="M17.4353 14.6587C17.7236 14.6587 17.876 14.4955 17.876 14.2126V12.9286C17.876 12.3627 18.1752 12.0743 18.7193 12.0743H20.036C20.3244 12.0743 20.4821 11.9166 20.4821 11.6336C20.4821 11.3507 20.3244 11.1984 20.036 11.1984H18.7084C17.5713 11.1984 17 11.7588 17 12.8796V14.2126C17 14.4955 17.1578 14.6587 17.4353 14.6587ZM27.2125 14.6587C27.5008 14.6587 27.6532 14.4955 27.6532 14.2126V12.8796C27.6532 11.7588 27.0819 11.1984 25.9447 11.1984H24.6117C24.3288 11.1984 24.171 11.3507 24.171 11.6336C24.171 11.9166 24.3288 12.0743 24.6117 12.0743H25.9284C26.4671 12.0743 26.7772 12.3627 26.7772 12.9286V14.2126C26.7772 14.4955 26.935 14.6587 27.2125 14.6587ZM18.7084 21.8461H20.036C20.3244 21.8461 20.4821 21.6883 20.4821 21.4108C20.4821 21.1279 20.3244 20.9701 20.036 20.9701H18.7193C18.1752 20.9701 17.876 20.6818 17.876 20.1159V18.8319C17.876 18.5435 17.7182 18.3857 17.4353 18.3857C17.1523 18.3857 17 18.5435 17 18.8319V20.1594C17 21.2857 17.5713 21.8461 18.7084 21.8461ZM24.6117 21.8461H25.9447C27.0819 21.8461 27.6532 21.2803 27.6532 20.1594V18.8319C27.6532 18.5435 27.4954 18.3857 27.2125 18.3857C26.9295 18.3857 26.7772 18.5435 26.7772 18.8319V20.1159C26.7772 20.6818 26.4671 20.9701 25.9284 20.9701H24.6117C24.3288 20.9701 24.171 21.1279 24.171 21.4108C24.171 21.6883 24.3288 21.8461 24.6117 21.8461Z" fill="#FABE12"/>
<path d="M19.8398 18.734H20.2316V14.3105H19.8398V18.734ZM20.7213 18.734H21.4558V14.3105H20.7213V18.734ZM21.7822 18.734H22.2447V14.3105H21.7822V18.734ZM22.6582 18.734H23.371V14.3105H22.6582V18.734ZM23.6648 18.734H24.236V14.3105H23.6648V18.734ZM24.4428 18.734H24.8073V14.3105H24.4428V18.734Z" fill="#FABE12"/>
</g>
<defs>
<filter id="filter0_d_105_643" x="0.624999" y="0.875" width="43.75" height="43.75" filterUnits="userSpaceOnUse" color-interpolation-filters="sRGB">
<feFlood flood-opacity="0" result="BackgroundImageFix"/>
<feColorMatrix in="SourceAlpha" type="matrix" values="0 0 0 0 0 0 0 0 0 0 0 0 0 0 0 0 0 0 127 0" result="hardAlpha"/>
<feOffset dy="6.25"/>
<feGaussianBlur stdDeviation="4.6875"/>
<feComposite in2="hardAlpha" operator="out"/>
<feColorMatrix type="matrix" values="0 0 0 0 0.968627 0 0 0 0 0.788235 0 0 0 0 0.282353 0 0 0 0.15 0"/>
<feBlend mode="normal" in2="BackgroundImageFix" result="effect1_dropShadow_105_643"/>
<feBlend mode="normal" in="SourceGraphic" in2="effect1_dropShadow_105_643" result="shape"/>
</filter>
<linearGradient id="paint0_linear_105_643" x1="21.875" y1="28.0625" x2="31.25" y2="11.1875" gradientUnits="userSpaceOnUse">
<stop stop-color="#F1EFEF" stop-opacity="0"/>
<stop offset="1" stop-color="#F7C948"/>
</linearGradient>
<clipPath id="clip0_105_643">
<rect width="10.6532" height="10.6586" fill="white" transform="translate(17 11.1875)"/>
</clipPath>
</defs>
</svg>
