<svg width="50" height="50" viewBox="0 0 50 50" fill="none" xmlns="http://www.w3.org/2000/svg">
<path d="M20.5018 6.93779C21.2609 6.00385 21.6405 5.53688 22.0121 5.23296C23.7503 3.81134 26.2494 3.81134 27.9876 5.23296C28.3592 5.53688 28.7387 6.00385 29.4978 6.93779C29.8551 7.37727 30.0337 7.59701 30.2245 7.78401C31.0947 8.63658 32.2609 9.11963 33.479 9.13207C33.7462 9.1348 34.0279 9.10572 34.5912 9.04754C35.7884 8.92392 36.387 8.86211 36.8646 8.90996C39.099 9.1338 40.8661 10.901 41.09 13.1353C41.1378 13.6129 41.076 14.2115 40.9524 15.4087C40.8942 15.972 40.8651 16.2537 40.8678 16.5209C40.8803 17.7391 41.3633 18.9052 42.2159 19.7754C42.4029 19.9663 42.6227 20.1449 43.0621 20.5021C43.9961 21.2612 44.463 21.6407 44.767 22.0123C46.1886 23.7505 46.1886 26.2497 44.767 27.9878C44.463 28.3594 43.9961 28.739 43.0621 29.4981C42.6227 29.8553 42.4029 30.0339 42.2159 30.2248C41.3633 31.0949 40.8803 32.2611 40.8678 33.4793C40.8651 33.7465 40.8942 34.0281 40.9524 34.5915C41.076 35.7886 41.1378 36.3872 41.09 36.8649C40.8661 39.0992 39.099 40.8664 36.8646 41.0902C36.387 41.1381 35.7884 41.0762 34.5912 40.9526C34.0279 40.8944 33.7462 40.8654 33.479 40.8681C32.2609 40.8805 31.0947 41.3636 30.2245 42.2162C30.0337 42.4032 29.8551 42.6229 29.4978 43.0624C28.7387 43.9963 28.3592 44.4633 27.9876 44.7672C26.2494 46.1888 23.7503 46.1888 22.0121 44.7672C21.6405 44.4633 21.2609 43.9963 20.5018 43.0624C20.1446 42.6229 19.966 42.4032 19.7752 42.2162C18.905 41.3636 17.7388 40.8805 16.5206 40.8681C16.2535 40.8654 15.9718 40.8944 15.4084 40.9526C14.2113 41.0762 13.6127 41.1381 13.135 41.0902C10.9007 40.8664 9.13355 39.0992 8.90972 36.8649C8.86186 36.3872 8.92367 35.7886 9.0473 34.5915C9.10547 34.0281 9.13456 33.7465 9.13183 33.4793C9.11938 32.2611 8.63634 31.0949 7.78376 30.2248C7.59676 30.0339 7.37702 29.8553 6.93754 29.4981C6.00361 28.739 5.53664 28.3594 5.23272 27.9878C3.8111 26.2497 3.8111 23.7505 5.23272 22.0123C5.53664 21.6407 6.00361 21.2612 6.93754 20.5021C7.37702 20.1449 7.59676 19.9663 7.78376 19.7754C8.63634 18.9052 9.11938 17.7391 9.13183 16.5209C9.13456 16.2537 9.10547 15.972 9.0473 15.4087C8.92367 14.2115 8.86186 13.6129 8.90972 13.1353C9.13355 10.901 10.9007 9.1338 13.135 8.90996C13.6127 8.86211 14.2113 8.92392 15.4084 9.04754C15.9718 9.10572 16.2535 9.1348 16.5206 9.13207C17.7388 9.11963 18.905 8.63658 19.7752 7.78401C19.966 7.59701 20.1446 7.37727 20.5018 6.93779Z" fill="#FABE12"/>
<path d="M18.75 25L22.9167 29.1666L31.25 20.8333" stroke="black" stroke-width="3.125" stroke-linecap="round" stroke-linejoin="round"/>
</svg>
