<svg width="50" height="50" viewBox="0 0 50 50" fill="none" xmlns="http://www.w3.org/2000/svg">
<path d="M22.8917 4.10067C24.0198 2.63311 26.127 2.63311 27.2551 4.10067C29.6018 7.15361 33.0272 12.4868 33.2277 17.8167C33.4077 22.5982 31.7383 28.2751 30.7199 31.2525C30.2904 32.5083 29.0979 33.3099 27.7706 33.3099H22.3763C21.049 33.3099 19.8565 32.5083 19.4269 31.2525C18.4085 28.2751 16.7392 22.5982 16.9191 17.8167C17.1197 12.4868 20.545 7.15361 22.8917 4.10067Z" fill="#FABE12"/>
<path d="M14.0308 35.1141V27.7752C14.0308 27.2619 14.2724 26.7785 14.6831 26.4705L15.5329 25.8332C16.4087 25.1763 17.67 25.5517 18.0441 26.5805L20.141 32.3468C20.3864 33.0218 20.1614 33.7779 19.5868 34.2088L16.6401 36.4188C15.565 37.2252 14.0308 36.458 14.0308 35.1141Z" fill="#FABE12"/>
<path d="M14.0308 35.1141V27.7752C14.0308 27.2619 14.2724 26.7785 14.6831 26.4705L15.5329 25.8332C16.4087 25.1763 17.67 25.5517 18.0441 26.5805L20.141 32.3468C20.3864 33.0218 20.1614 33.7779 19.5868 34.2088L16.6401 36.4188C15.565 37.2252 14.0308 36.458 14.0308 35.1141Z" fill="#FABE12"/>
<path d="M36.2817 35.1141V27.7752C36.2817 27.2619 36.04 26.7785 35.6294 26.4705L34.7795 25.8332C33.9038 25.1763 32.6424 25.5517 32.2683 26.5805L30.1715 32.3468C29.9261 33.0218 30.1511 33.7779 30.7257 34.2088L33.6723 36.4188C34.7475 37.2251 36.2817 36.458 36.2817 35.1141Z" fill="#FABE12"/>
<path d="M33.2277 17.8167L31.598 17.8781L33.2277 17.8167ZM16.9191 17.8167L18.5488 17.8781L16.9191 17.8167ZM27.2551 4.10067L28.5481 3.10677L27.2551 4.10067ZM22.8917 4.10067L24.1847 5.09458L22.8917 4.10067ZM19.4269 31.2525L20.97 30.7246L19.4269 31.2525ZM30.7199 31.2525L29.1768 30.7246L30.7199 31.2525ZM16.6401 36.4188L15.6616 35.1141H15.6616L16.6401 36.4188ZM19.5868 34.2088L18.6083 32.9041H18.6083L19.5868 34.2088ZM15.5329 25.8332L14.5544 24.5285H14.5544L15.5329 25.8332ZM14.6831 26.4705L15.6616 27.7752H15.6616L14.6831 26.4705ZM18.0441 26.5805L16.5115 27.1379L18.0441 26.5805ZM20.141 32.3468L21.6736 31.7895L20.141 32.3468ZM33.6723 36.4188L34.6508 35.1141L33.6723 36.4188ZM30.7257 34.2088L31.7042 32.9041L30.7257 34.2088ZM34.7795 25.8332L33.801 27.1378H33.801L34.7795 25.8332ZM35.6294 26.4705L36.6079 25.1658H36.6079L35.6294 26.4705ZM32.2683 26.5805L33.801 27.1378L32.2683 26.5805ZM30.1715 32.3468L28.6388 31.7894V31.7894L30.1715 32.3468ZM27.7706 31.6791H22.3763V34.9408H27.7706V31.6791ZM31.598 17.8781C31.7658 22.3352 30.1892 27.7651 29.1768 30.7246L32.263 31.7803C33.2875 28.7852 35.0496 22.8613 34.8575 17.7554L31.598 17.8781ZM20.97 30.7246C19.9577 27.7651 18.3811 22.3352 18.5488 17.8781L15.2894 17.7554C15.0972 22.8613 16.8593 28.7852 17.8838 31.7803L20.97 30.7246ZM25.9621 5.09458C28.285 8.11652 31.4181 13.0963 31.598 17.8781L34.8575 17.7554C34.6363 11.8773 30.9187 6.1907 28.5481 3.10677L25.9621 5.09458ZM18.5488 17.8781C18.7288 13.0963 21.8618 8.11652 24.1847 5.09458L21.5987 3.10677C19.2282 6.1907 15.5106 11.8773 15.2894 17.7554L18.5488 17.8781ZM28.5481 3.10677C26.7672 0.789926 23.3796 0.789924 21.5987 3.10677L24.1847 5.09458C24.66 4.47629 25.4868 4.47629 25.9621 5.09458L28.5481 3.10677ZM22.3763 31.6791C21.7019 31.6791 21.1599 31.2797 20.97 30.7246L17.8838 31.7803C18.5531 33.7369 20.3961 34.9408 22.3763 34.9408V31.6791ZM27.7706 34.9408C29.7508 34.9408 31.5937 33.7369 32.263 31.7803L29.1768 30.7246C28.987 31.2797 28.445 31.6791 27.7706 31.6791V34.9408ZM12.3999 27.7752V35.1141H15.6616V27.7752H12.3999ZM17.6187 37.7235L20.5653 35.5135L18.6083 32.9041L15.6616 35.1141L17.6187 37.7235ZM14.5544 24.5285L13.7046 25.1658L15.6616 27.7752L16.5115 27.1379L14.5544 24.5285ZM12.3999 35.1141C12.3999 37.8019 15.4684 39.3362 17.6187 37.7235L15.6616 35.1141H15.6616H12.3999ZM15.6616 27.7752L13.7046 25.1658C12.8833 25.7818 12.3999 26.7486 12.3999 27.7752H15.6616ZM16.5115 27.1379L18.6083 32.9041L21.6736 31.7895L19.5768 26.0232L16.5115 27.1379ZM16.5115 27.1379H16.5115L19.5768 26.0232C18.8286 23.9656 16.3059 23.2148 14.5544 24.5285L16.5115 27.1379ZM20.5653 35.5135C21.7145 34.6516 22.1645 33.1394 21.6736 31.7895L18.6083 32.9041L18.6083 32.9041L20.5653 35.5135ZM34.6508 27.7752V35.1141H37.9126V27.7752H34.6508ZM34.6508 35.1141L31.7042 32.9041L29.7472 35.5135L32.6938 37.7235L34.6508 35.1141ZM33.801 27.1378L34.6508 27.7752L36.6079 25.1658L35.758 24.5285L33.801 27.1378ZM34.6508 35.1141V35.1141L32.6938 37.7235C34.8441 39.3362 37.9126 37.8019 37.9126 35.1141H34.6508ZM37.9126 27.7752C37.9126 26.7486 37.4292 25.7818 36.6079 25.1658L34.6508 27.7752L34.6508 27.7752H37.9126ZM30.7357 26.0232L28.6388 31.7894L31.7042 32.9041L33.801 27.1378L30.7357 26.0232ZM35.7581 24.5285C34.0066 23.2148 31.4839 23.9656 30.7357 26.0232L33.801 27.1378H33.801L35.7581 24.5285ZM31.7042 32.9041L28.6388 31.7894C28.1479 33.1394 28.598 34.6516 29.7472 35.5135L31.7042 32.9041Z" fill="#FABE12"/>
<circle cx="25.0288" cy="15.1453" r="4.07716" fill="black"/>
<path d="M23.0981 40.4237V46.9472M27.9907 40.4237V43.6854" stroke="#FABE12" stroke-width="3.26173" stroke-linecap="round"/>
</svg>
