<svg width="40" height="40" viewBox="0 0 40 40" fill="none" xmlns="http://www.w3.org/2000/svg">
<path fill-rule="evenodd" clip-rule="evenodd" d="M0 20C0 10.5719 0 5.85786 2.92893 2.92893C5.85786 0 10.5719 0 20 0C29.4281 0 34.1421 0 37.0711 2.92893C40 5.85786 40 10.5719 40 20C40 29.4281 40 34.1421 37.0711 37.0711C34.1421 40 29.4281 40 20 40C10.5719 40 5.85786 40 2.92893 37.0711C0 34.1421 0 29.4281 0 20ZM30 22.5C30.6253 22.5 31.1849 22.8879 31.4045 23.4733C31.624 24.0588 31.4574 24.719 30.9863 25.1301L24.1113 31.1301C23.4871 31.6749 22.5396 31.6105 21.9949 30.9863C21.4501 30.3621 21.5145 29.4146 22.1387 28.8699L26 25.5L10 25.5C9.17157 25.5 8.5 24.8284 8.5 24C8.5 23.1716 9.17157 22.5 10 22.5L30 22.5ZM18.0051 9.0137C18.5499 9.63786 18.4855 10.5854 17.8613 11.1301L14 14.5H30C30.8284 14.5 31.5 15.1716 31.5 16C31.5 16.8284 30.8284 17.5 30 17.5H10C9.37473 17.5 8.81505 17.1121 8.59551 16.5267C8.37596 15.9412 8.54261 15.281 9.0137 14.8699L15.8887 8.86986C16.5129 8.32514 17.4604 8.38954 18.0051 9.0137Z" fill="#FABE12"/>
</svg>
