<svg width="54" height="54" viewBox="0 0 54 54" fill="none" xmlns="http://www.w3.org/2000/svg">
<g filter="url(#filter0_i_212_528)">
<rect y="3.8147e-06" width="54" height="54" rx="11.5222" fill="url(#paint0_radial_212_528)"/>
</g>
<path d="M44.485 29.8902C44.485 31.6216 44.4606 33.353 44.4947 35.0843C44.5142 35.9476 44.1875 36.6548 43.5973 37.1961C43.0218 37.718 42.2854 37.9911 41.466 37.8838C40.7101 37.7863 40.0761 37.44 39.603 36.8645C39.1787 36.3475 39.0031 35.7135 39.0031 35.0404C39.0031 31.7142 38.9836 28.3929 39.0128 25.0667C39.0226 23.9011 38.6958 22.872 37.974 21.9893C37.457 21.3552 36.7986 20.8626 36.0085 20.5651C35.2575 20.2774 34.4918 20.1701 33.6919 20.2628C33.2139 20.3164 32.7701 20.4822 32.3214 20.6578C31.4387 21.0138 30.7608 21.6332 30.2682 22.4136C29.7902 23.1646 29.4878 23.9986 29.4976 24.9253C29.5171 26.5006 29.5025 28.0808 29.5025 29.6561C29.5025 30.9973 28.8294 31.8654 27.6345 32.3141C26.8444 32.6116 26.0543 32.4848 25.3228 32.0117C24.6546 31.5826 24.2888 30.9729 24.0888 30.2316C24.0401 30.0463 24.0547 29.8609 24.0547 29.6756C24.0498 27.1883 24.0596 24.7009 24.0401 22.2136C24.0352 21.5113 23.9133 20.8139 23.5816 20.175C23.2256 19.4873 22.7671 18.863 22.1331 18.429C21.4796 17.9803 20.7773 17.5998 19.9384 17.5462C18.885 17.4779 17.8754 17.5657 16.939 18.1168C15.8465 18.7606 15.1247 19.6873 14.7345 20.8773C14.5882 21.3162 14.515 21.7747 14.515 22.2429C14.515 25.6178 14.515 28.9879 14.515 32.3629C14.515 32.9043 14.437 33.431 14.1249 33.8894C13.6908 34.5332 13.1104 34.9526 12.3203 35.1038C11.7058 35.2209 11.1352 35.1136 10.5938 34.8795C10.1744 34.699 9.82325 34.3918 9.5794 33.987C9.39407 33.6748 9.19898 33.3725 9.11119 33.0018C9.04779 32.7238 9.07705 32.4556 9.07705 32.1873C9.07705 30.0414 9.07705 27.8954 9.07705 25.7495C9.07705 24.6278 9.08193 23.506 9.07705 22.3843C9.07218 21.2577 9.25751 20.1701 9.59403 19.0874C9.77936 18.4875 10.0574 17.9412 10.3305 17.3852C10.7402 16.5561 11.3254 15.8636 11.9351 15.1759C12.4569 14.5858 13.0861 14.1371 13.7103 13.6884C14.5638 13.0787 15.5441 12.7276 16.5439 12.4155C17.7925 12.0302 19.0654 11.9619 20.3481 12.0692C21.2016 12.1423 22.0307 12.3813 22.8452 12.6593C23.6597 12.9422 24.3961 13.3616 25.1033 13.8347C25.5666 14.1468 26.0007 14.5077 26.4006 14.9077C26.8737 15.3807 27.3029 15.888 27.6979 16.4196C27.7272 16.4586 27.7564 16.4976 27.776 16.5415C27.9662 16.9073 28.0052 16.9268 28.3466 16.6634C29.1952 16.0099 30.1511 15.571 31.1509 15.2247C31.6289 15.0589 32.1361 14.9857 32.6384 14.8833C33.4188 14.7272 34.2089 14.7516 34.9941 14.7809C35.6818 14.8052 36.3451 14.9955 37.0181 15.1369C37.896 15.3222 38.6861 15.7075 39.4372 16.1465C40.5882 16.8195 41.5685 17.7071 42.3927 18.7655C42.8804 19.3946 43.2901 20.0677 43.6071 20.7895C43.8217 21.2772 44.007 21.7844 44.1533 22.3063C44.4021 23.2037 44.4996 24.1157 44.4899 25.0472C44.4752 26.6713 44.485 28.2807 44.485 29.8902Z" fill="url(#paint1_linear_212_528)"/>
<path d="M16.5684 26.047C16.5684 24.5937 16.5684 23.1403 16.5684 21.682C16.5684 21.1943 16.622 20.7017 16.8512 20.2725C17.5389 18.9898 19.0752 18.4436 20.3774 19.0337C21.4601 19.5214 22.0015 20.3701 22.0064 21.5259C22.0259 24.3693 22.0161 27.2127 22.0161 30.056C22.0161 30.573 22.1478 31.0607 22.26 31.5631C22.4014 32.2117 22.7672 32.7385 23.1671 33.2164C23.5085 33.6212 23.9182 33.9919 24.4205 34.2455C24.9668 34.5186 25.513 34.7625 26.1226 34.8502C27.1127 34.9917 28.0345 34.8064 28.927 34.3674C29.7561 33.9577 30.395 33.3432 30.8681 32.5726C31.1656 32.0849 31.3656 31.5338 31.4728 30.9534C31.5655 30.4608 31.5606 29.9682 31.5606 29.4708C31.5606 28.1149 31.5655 26.7591 31.5606 25.3984C31.5558 24.4864 31.9167 23.7353 32.6336 23.1988C33.053 22.8818 33.5554 22.6818 34.1162 22.6672C35.0478 22.6379 35.8135 22.9598 36.3987 23.667C36.7889 24.145 37.0133 24.7205 37.0133 25.3447C37.023 27.0273 37.0279 28.7099 37.0084 30.3926C36.9986 31.2022 36.8377 32.002 36.6426 32.7921C36.389 33.8309 35.9305 34.7722 35.3648 35.6647C35.0575 36.1524 34.6966 36.606 34.3016 37.0303C33.9553 37.4059 33.5895 37.7619 33.1994 38.0789C32.5751 38.5812 31.8923 39.0153 31.1558 39.3567C30.1658 39.82 29.1318 40.098 28.054 40.259C27.0981 40.4004 26.1422 40.376 25.196 40.2248C24.6693 40.1419 24.1669 39.9615 23.6499 39.8395C22.9037 39.6688 22.2795 39.2445 21.5967 38.9422C21.3431 38.83 21.1187 38.6398 20.8895 38.474C20.3481 38.0838 19.8409 37.64 19.3776 37.162C18.7728 36.5377 18.2656 35.8306 17.8413 35.0697C17.3487 34.187 16.9634 33.2506 16.7732 32.2605C16.6464 31.5972 16.5684 30.9144 16.5684 30.2316C16.5732 28.8416 16.5684 27.4468 16.5684 26.047Z" fill="url(#paint2_linear_212_528)"/>
<defs>
<filter id="filter0_i_212_528" x="0" y="3.8147e-06" width="54.2095" height="54" filterUnits="userSpaceOnUse" color-interpolation-filters="sRGB">
<feFlood flood-opacity="0" result="BackgroundImageFix"/>
<feBlend mode="normal" in="SourceGraphic" in2="BackgroundImageFix" result="shape"/>
<feColorMatrix in="SourceAlpha" type="matrix" values="0 0 0 0 0 0 0 0 0 0 0 0 0 0 0 0 0 0 127 0" result="hardAlpha"/>
<feOffset dx="0.209495"/>
<feGaussianBlur stdDeviation="0.209495"/>
<feComposite in2="hardAlpha" operator="arithmetic" k2="-1" k3="1"/>
<feColorMatrix type="matrix" values="0 0 0 0 0.441667 0 0 0 0 0.709501 0 0 0 0 1 0 0 0 0.58 0"/>
<feBlend mode="normal" in2="shape" result="effect1_innerShadow_212_528"/>
</filter>
<radialGradient id="paint0_radial_212_528" cx="0" cy="0" r="1" gradientUnits="userSpaceOnUse" gradientTransform="translate(51.9961 2.42579) rotate(139.137) scale(68.7533 116.909)">
<stop stop-color="#F8BD14"/>
<stop offset="0.379628" stop-color="#FCC834"/>
<stop offset="0.703893" stop-color="#DFA90F"/>
<stop offset="1" stop-color="#D19E0B"/>
</radialGradient>
<linearGradient id="paint1_linear_212_528" x1="26.7829" y1="12.0234" x2="26.7829" y2="37.9069" gradientUnits="userSpaceOnUse">
<stop stop-color="white"/>
<stop offset="1" stop-color="#B8BAC2"/>
</linearGradient>
<linearGradient id="paint2_linear_212_528" x1="26.7951" y1="18.7964" x2="26.7951" y2="40.3527" gradientUnits="userSpaceOnUse">
<stop stop-color="white"/>
<stop offset="1" stop-color="#B8BAC2"/>
</linearGradient>
</defs>
</svg>
