<svg width="70" height="70" viewBox="0 0 70 70" fill="none" xmlns="http://www.w3.org/2000/svg">
<g filter="url(#filter0_d_93_38)">
<path fill-rule="evenodd" clip-rule="evenodd" d="M54.5 25C54.5 14.2304 45.7696 5.5 35 5.5C24.2304 5.5 15.5 14.2304 15.5 25C15.5 35.7696 24.2304 44.5 35 44.5C45.7696 44.5 54.5 35.7696 54.5 25ZM55 25C55 13.9543 46.0457 5 35 5C23.9543 5 15 13.9543 15 25C15 36.0457 23.9543 45 35 45C46.0457 45 55 36.0457 55 25Z" fill="url(#paint0_linear_93_38)" shape-rendering="crispEdges"/>
</g>
<path fill-rule="evenodd" clip-rule="evenodd" d="M35 32.5C39.1421 32.5 42.5 29.1421 42.5 25C42.5 20.8579 39.1421 17.5 35 17.5C30.8579 17.5 27.5 20.8579 27.5 25C27.5 29.1421 30.8579 32.5 35 32.5ZM34.5259 28.0787V28.8791H35.0387V28.0787H35.0637C35.5681 28.0787 35.9777 28.0036 36.2924 27.8535C36.6072 27.7035 36.8375 27.5002 36.9834 27.2439C37.1293 26.9875 37.2023 26.6988 37.2023 26.3778C37.2023 26.0401 37.1356 25.7546 37.0022 25.5211C36.8688 25.2877 36.7031 25.1084 36.505 24.9833C36.307 24.8583 36.11 24.7895 35.9141 24.777V24.7145C36.0975 24.6644 36.2674 24.5873 36.4237 24.4831C36.5822 24.3789 36.7093 24.2371 36.8052 24.0579C36.9032 23.8786 36.9521 23.6514 36.9521 23.3763C36.9521 23.0636 36.8813 22.7791 36.7395 22.5227C36.5978 22.2642 36.3821 22.0589 36.0923 21.9068C35.8135 21.7583 35.4623 21.6813 35.0387 21.6757V20.875H34.5259V21.6754H32.75V28.0787H34.5259ZM35.0387 27.3908H35.0637C35.5702 27.3908 35.9297 27.2928 36.1424 27.0969C36.357 26.8989 36.4644 26.6592 36.4644 26.3778C36.4644 26.161 36.4092 25.9609 36.2987 25.7775C36.1882 25.592 36.0308 25.444 35.8266 25.3335C35.6223 25.221 35.3805 25.1647 35.1012 25.1647H35.0387V27.3908ZM34.5259 25.1647V27.3908H33.5254V25.1647H34.5259ZM35.0387 24.4877C35.2424 24.4789 35.4279 24.4335 35.5952 24.3518C35.7849 24.2601 35.935 24.1308 36.0454 23.9641C36.158 23.7973 36.2143 23.6014 36.2143 23.3763C36.2143 23.0949 36.1163 22.8562 35.9204 22.6603C35.7322 22.4701 35.4383 22.3713 35.0387 22.3637V24.4877ZM34.5259 22.3633V24.4893H33.5254V22.3633H34.5259Z" fill="#FABE12"/>
<defs>
<filter id="filter0_d_93_38" x="-9.53674e-07" y="0" width="70" height="70" filterUnits="userSpaceOnUse" color-interpolation-filters="sRGB">
<feFlood flood-opacity="0" result="BackgroundImageFix"/>
<feColorMatrix in="SourceAlpha" type="matrix" values="0 0 0 0 0 0 0 0 0 0 0 0 0 0 0 0 0 0 127 0" result="hardAlpha"/>
<feOffset dy="10"/>
<feGaussianBlur stdDeviation="7.5"/>
<feComposite in2="hardAlpha" operator="out"/>
<feColorMatrix type="matrix" values="0 0 0 0 0.968627 0 0 0 0 0.788235 0 0 0 0 0.282353 0 0 0 0.15 0"/>
<feBlend mode="normal" in2="BackgroundImageFix" result="effect1_dropShadow_93_38"/>
<feBlend mode="normal" in="SourceGraphic" in2="effect1_dropShadow_93_38" result="shape"/>
</filter>
<linearGradient id="paint0_linear_93_38" x1="55" y1="19.5" x2="21.5" y2="45" gradientUnits="userSpaceOnUse">
<stop stop-color="#F1EFEF" stop-opacity="0"/>
<stop offset="1" stop-color="#F7C948"/>
</linearGradient>
</defs>
</svg>
